<svg id="Layer_1" data-name="Layer 1" xmlns="http://www.w3.org/2000/svg" viewBox="0 0 250 50"><path d="M21.25,40.55h-.64a1.38,1.38,0,0,1-1.38-1.38V16.07l-4.65,8.7a1.2,1.2,0,0,1-.92.64h-.28a1.23,1.23,0,0,1-.92-.64l-4.64-8.7v23.1a1.39,1.39,0,0,1-1.38,1.38H5.79a1.36,1.36,0,0,1-1.38-1.38V10.74A1.26,1.26,0,0,1,5.7,9.45h.69a2,2,0,0,1,1.7,1.15l5.43,10.12L19,10.6a2.07,2.07,0,0,1,1.7-1.15h.69a1.26,1.26,0,0,1,1.29,1.29V39.17A1.36,1.36,0,0,1,21.25,40.55Z"/><path d="M42.23,40.55H30.91a1.26,1.26,0,0,1-1.29-1.29V10.74A1.27,1.27,0,0,1,31,9.45H41.58A1.28,1.28,0,0,1,43,10.74v.5a1.29,1.29,0,0,1-1.38,1.29H33v11h7.54A1.31,1.31,0,0,1,42,24.77v.5a1.3,1.3,0,0,1-1.38,1.29H33V37.47h9.2a1.28,1.28,0,0,1,1.38,1.28v.51A1.29,1.29,0,0,1,42.23,40.55Z"/><path d="M58.46,40.55h-10v-30a1.07,1.07,0,0,1,1.06-1.1h.64a1.18,1.18,0,0,1,1,.5l.6,1.06a.78.78,0,0,0,.69.46c1.1,0,2.39-2.16,5.33-2.16h.51c2.9,0,5.43,1.61,5.43,5.2V35.72A5,5,0,0,1,58.46,40.55ZM60.3,15.06a2.51,2.51,0,0,0-2.48-2.53h-3.4a2.55,2.55,0,0,0-2.53,2.53V37.47h5.47a2.92,2.92,0,0,0,2.94-3Z"/><path d="M73.69,40.55H73a1.36,1.36,0,0,1-1.38-1.38V10.83A1.36,1.36,0,0,1,73,9.45h.65a1.39,1.39,0,0,1,1.38,1.38V39.17A1.39,1.39,0,0,1,73.69,40.55Z"/><path d="M98.62,40.46l-.78.18a1.19,1.19,0,0,1-1.52-.92L94.44,31.3H86.29l-1.88,8.42a1.2,1.2,0,0,1-1.52.92l-.78-.18a1.18,1.18,0,0,1-1-1.06,1.21,1.21,0,0,1,0-.42l6.44-28.06a1.82,1.82,0,0,1,1.79-1.47h1.89a1.82,1.82,0,0,1,1.79,1.47L99.54,39a1.21,1.21,0,0,1,0,.42A1.18,1.18,0,0,1,98.62,40.46ZM91.54,18.7c-.51-2.21-1.11-6.26-1.11-6.26h-.14s-.59,4-1.1,6.26L87,28.22H93.7Z"/><path d="M124.1,40.55h-10v-30a1.07,1.07,0,0,1,1.06-1.1h.64a1.18,1.18,0,0,1,1,.5l.6,1.06a.76.76,0,0,0,.69.46c1.1,0,2.3-2.16,4.92-2.16h.51a5,5,0,0,1,4.87,5.2v6.72a3.6,3.6,0,0,1-2.8,3.58v.1a3.78,3.78,0,0,1,3.77,3.63v7.13A5,5,0,0,1,124.1,40.55ZM125,15.06a2.49,2.49,0,0,0-2.49-2.53H120.1a2.53,2.53,0,0,0-2.58,2.53v8.42h4.7A2.81,2.81,0,0,0,125,20.86Zm1,14.26a2.53,2.53,0,0,0-2.71-2.76h-5.71V37.47H123a2.92,2.92,0,0,0,2.94-3Z"/><path d="M149.22,11.56l-6.49,13.3V39.17a1.36,1.36,0,0,1-1.38,1.38h-.64a1.36,1.36,0,0,1-1.38-1.38V24.86l-6.49-13.3a1.21,1.21,0,0,1-.14-.55,1.35,1.35,0,0,1,.83-1.29l.55-.27a1.19,1.19,0,0,1,1.71.55L141,20.67,146.27,10A1.2,1.2,0,0,1,148,9.45l.55.27a1.35,1.35,0,0,1,.83,1.29A1.21,1.21,0,0,1,149.22,11.56Z"/><path d="M180.41,40.55h-.65a1.39,1.39,0,0,1-1.38-1.38V16.07l-4.64,8.7a1.23,1.23,0,0,1-.92.64h-.28a1.2,1.2,0,0,1-.92-.64L167,16.07v23.1a1.38,1.38,0,0,1-1.38,1.38H165a1.36,1.36,0,0,1-1.38-1.38V10.74a1.26,1.26,0,0,1,1.29-1.29h.69a2.05,2.05,0,0,1,1.7,1.15l5.43,10.12,5.43-10.12a2,2,0,0,1,1.7-1.15h.69a1.26,1.26,0,0,1,1.29,1.29V39.17A1.36,1.36,0,0,1,180.41,40.55Z"/><path d="M204.37,40.46l-.78.18a1.19,1.19,0,0,1-1.52-.92l-1.89-8.42H192l-1.88,8.42a1.2,1.2,0,0,1-1.52.92l-.78-.18a1.18,1.18,0,0,1-1-1.06,1.21,1.21,0,0,1,.05-.42l6.44-28.06a1.82,1.82,0,0,1,1.79-1.47h1.89a1.82,1.82,0,0,1,1.79,1.47L205.29,39a1.21,1.21,0,0,1,.05.42A1.18,1.18,0,0,1,204.37,40.46ZM197.29,18.7c-.51-2.21-1.11-6.26-1.11-6.26H196s-.59,4-1.1,6.26l-2.16,9.52h6.67Z"/><path d="M220.42,40.55h-10v-30a1.07,1.07,0,0,1,1.06-1.1h.64a1.18,1.18,0,0,1,1,.5l.6,1.06a.78.78,0,0,0,.69.46c1.1,0,2.39-2.16,5.33-2.16h.51c2.9,0,5.43,1.61,5.43,5.2V35.72A5,5,0,0,1,220.42,40.55Zm1.84-25.49a2.51,2.51,0,0,0-2.48-2.53h-3.4a2.55,2.55,0,0,0-2.53,2.53V37.47h5.47a2.92,2.92,0,0,0,2.94-3Z"/><path d="M241,40.55h-7.86a1.28,1.28,0,0,1-1.38-1.29v-.51a1.27,1.27,0,0,1,1.38-1.28h7.08A2.74,2.74,0,0,0,243,34.71V28.45a2,2,0,0,0-2-1.89h-4.65a4.24,4.24,0,0,1-4.46-4.23v-8a5.21,5.21,0,0,1,5.2-4.87h6.8a1.3,1.3,0,0,1,1.38,1.29v.5a1.31,1.31,0,0,1-1.38,1.29H238a2.62,2.62,0,0,0-2.67,2.58v6.53c0,1.06.6,1.84,2.44,1.84h5.15a3.56,3.56,0,0,1,3.5,3.68V35.3A5.07,5.07,0,0,1,241,40.55Z"/></svg>