<?xml version="1.0" encoding="utf-8"?>
<!-- Generator: Adobe Illustrator 25.0.0, SVG Export Plug-In . SVG Version: 6.00 Build 0)  -->
<svg version="1.1" id="Layer_1" xmlns="http://www.w3.org/2000/svg" xmlns:xlink="http://www.w3.org/1999/xlink" x="0px" y="0px"
	 viewBox="0 0 1000 1000" style="enable-background:new 0 0 1000 1000;" xml:space="preserve">
<style type="text/css">
	.st0{fill:#1D1D1B;}
</style>
<g>
	<g>
		<path class="st0" d="M498.28,500.31c0.16-0.41,0.25-0.86,0.28-1.3l0.01-0.01c0.2-0.09,0.4-0.2,0.58-0.32
			c0.19-0.12,0.36-0.26,0.53-0.4l0.01,0c0.21,0.08,0.42,0.14,0.64,0.19c0.22,0.05,0.44,0.08,0.66,0.09l0.01,0.01
			c0.09,0.2,0.2,0.4,0.32,0.58c0.12,0.19,0.26,0.36,0.4,0.53l0,0.01c-0.16,0.41-0.25,0.86-0.28,1.3l-0.01,0.01
			c-0.2,0.09-0.4,0.2-0.58,0.32c-0.19,0.12-0.36,0.26-0.53,0.4l-0.01,0c-0.21-0.08-0.42-0.14-0.64-0.19
			c-0.22-0.05-0.44-0.08-0.66-0.09l-0.01-0.01c-0.09-0.2-0.2-0.4-0.32-0.58c-0.12-0.19-0.26-0.36-0.4-0.53L498.28,500.31z
			 M499.69,498.3c-0.17,0.15-0.34,0.28-0.53,0.4c-0.18,0.12-0.38,0.23-0.58,0.32c-0.03,0.44-0.12,0.88-0.27,1.29
			c0.15,0.17,0.28,0.34,0.4,0.53c0.12,0.19,0.23,0.38,0.32,0.58c0.22,0.01,0.44,0.04,0.66,0.09c0.22,0.05,0.43,0.11,0.64,0.19
			c0.16-0.15,0.34-0.28,0.53-0.4c0.18-0.12,0.38-0.23,0.58-0.32c0.03-0.44,0.12-0.88,0.27-1.29c-0.15-0.16-0.28-0.34-0.4-0.53
			c-0.12-0.19-0.23-0.38-0.32-0.58c-0.22-0.01-0.44-0.04-0.66-0.09C500.11,498.44,499.89,498.38,499.69,498.3z"/>
	</g>
	<g>
		<path class="st0" d="M498.18,500.57c0.11-0.47,0.16-0.96,0.13-1.44l0.01-0.01c0.21-0.13,0.4-0.27,0.59-0.42
			c0.18-0.15,0.36-0.32,0.52-0.51l0.01,0c0.23,0.06,0.47,0.1,0.71,0.12c0.24,0.02,0.48,0.02,0.72,0.01l0.01,0.01
			c0.13,0.21,0.27,0.4,0.42,0.59c0.16,0.18,0.33,0.36,0.51,0.52l0,0.01c-0.11,0.47-0.16,0.96-0.13,1.44l-0.01,0.01
			c-0.21,0.13-0.4,0.27-0.59,0.42c-0.18,0.16-0.36,0.33-0.52,0.51l-0.01,0c-0.23-0.06-0.47-0.1-0.71-0.12
			c-0.24-0.02-0.48-0.02-0.72-0.01l-0.01-0.01c-0.13-0.21-0.27-0.4-0.42-0.59c-0.15-0.18-0.32-0.36-0.51-0.52L498.18,500.57z
			 M499.44,498.21c-0.16,0.18-0.33,0.35-0.52,0.5c-0.18,0.15-0.38,0.3-0.58,0.42c0.03,0.48-0.01,0.97-0.13,1.43
			c0.18,0.16,0.35,0.33,0.5,0.52c0.15,0.18,0.3,0.38,0.42,0.58c0.24-0.01,0.48-0.01,0.72,0.01c0.24,0.02,0.48,0.06,0.71,0.12
			c0.16-0.18,0.33-0.35,0.52-0.5c0.18-0.15,0.38-0.3,0.58-0.42c-0.03-0.48,0.01-0.97,0.13-1.43c-0.18-0.16-0.35-0.33-0.5-0.52
			c-0.15-0.18-0.3-0.38-0.42-0.58c-0.24,0.01-0.48,0.01-0.72-0.01C499.91,498.31,499.67,498.27,499.44,498.21z"/>
	</g>
	<g>
		<path class="st0" d="M498.11,500.85c0.06-0.52,0.04-1.05-0.05-1.57l0.01-0.01c0.2-0.16,0.4-0.34,0.58-0.53
			c0.18-0.19,0.34-0.4,0.49-0.61l0.01-0.01c0.26,0.03,0.52,0.04,0.79,0.03c0.26-0.01,0.53-0.04,0.78-0.09l0.01,0.01
			c0.16,0.2,0.34,0.4,0.53,0.58c0.19,0.18,0.4,0.34,0.61,0.49l0.01,0.01c-0.06,0.52-0.04,1.06,0.05,1.57l-0.01,0.01
			c-0.21,0.16-0.4,0.34-0.58,0.53c-0.18,0.19-0.34,0.4-0.49,0.61l-0.01,0.01c-0.26-0.03-0.52-0.04-0.79-0.03s-0.53,0.04-0.78,0.09
			l-0.01-0.01c-0.16-0.2-0.34-0.4-0.53-0.58c-0.19-0.18-0.4-0.34-0.61-0.49L498.11,500.85z M499.15,498.14
			c-0.15,0.21-0.31,0.42-0.49,0.61c-0.18,0.19-0.37,0.37-0.57,0.53c0.09,0.51,0.11,1.04,0.05,1.56c0.22,0.15,0.42,0.31,0.61,0.49
			c0.19,0.18,0.37,0.37,0.53,0.57c0.26-0.05,0.52-0.08,0.78-0.09c0.26-0.01,0.52,0,0.78,0.03c0.15-0.21,0.31-0.42,0.49-0.61
			c0.18-0.19,0.37-0.37,0.57-0.53c-0.1-0.51-0.11-1.04-0.05-1.56c-0.21-0.15-0.42-0.31-0.61-0.49c-0.19-0.18-0.37-0.37-0.53-0.57
			c-0.26,0.05-0.52,0.08-0.78,0.09C499.68,498.18,499.41,498.17,499.15,498.14z"/>
	</g>
	<g>
		<path class="st0" d="M498.08,501.17c0-0.57-0.1-1.14-0.27-1.69l0-0.02c0.2-0.2,0.39-0.42,0.55-0.65c0.17-0.23,0.32-0.47,0.45-0.73
			l0.01-0.01c0.28,0,0.57-0.03,0.85-0.07c0.28-0.04,0.56-0.11,0.83-0.2l0.02,0c0.2,0.2,0.42,0.39,0.65,0.55
			c0.23,0.17,0.48,0.32,0.73,0.45l0.01,0.01c0,0.57,0.1,1.14,0.27,1.69l0,0.02c-0.2,0.2-0.39,0.42-0.55,0.65
			c-0.17,0.23-0.32,0.48-0.45,0.73l-0.01,0.01c-0.28,0-0.57,0.03-0.85,0.07s-0.56,0.11-0.83,0.2l-0.02,0
			c-0.2-0.2-0.42-0.39-0.65-0.55c-0.23-0.17-0.47-0.32-0.73-0.45L498.08,501.17z M498.84,498.11c-0.13,0.25-0.28,0.49-0.45,0.72
			c-0.17,0.23-0.35,0.45-0.55,0.65c0.17,0.54,0.26,1.11,0.27,1.68c0.25,0.13,0.5,0.28,0.72,0.45c0.23,0.17,0.45,0.35,0.65,0.55
			c0.27-0.08,0.55-0.15,0.83-0.19c0.28-0.04,0.57-0.07,0.85-0.07c0.13-0.25,0.28-0.49,0.45-0.72c0.17-0.23,0.35-0.45,0.55-0.65
			c-0.17-0.54-0.26-1.11-0.27-1.68c-0.25-0.13-0.49-0.28-0.72-0.45c-0.23-0.17-0.45-0.35-0.65-0.55c-0.27,0.08-0.55,0.15-0.83,0.19
			C499.41,498.08,499.12,498.11,498.84,498.11z"/>
	</g>
	<g>
		<path class="st0" d="M498.08,501.51c-0.08-0.61-0.25-1.22-0.51-1.78l0-0.02c0.19-0.25,0.36-0.51,0.51-0.78
			c0.15-0.27,0.28-0.55,0.39-0.84l0.01-0.01c0.31-0.04,0.61-0.1,0.91-0.19c0.3-0.09,0.59-0.19,0.87-0.32l0.02,0
			c0.24,0.19,0.51,0.36,0.78,0.51c0.27,0.15,0.56,0.28,0.84,0.39l0.01,0.01c0.08,0.61,0.25,1.22,0.51,1.78l0,0.02
			c-0.19,0.25-0.36,0.51-0.51,0.78c-0.15,0.27-0.28,0.56-0.39,0.84l-0.01,0.01c-0.31,0.04-0.61,0.1-0.91,0.19
			c-0.3,0.09-0.59,0.19-0.87,0.32l-0.02,0c-0.24-0.19-0.51-0.36-0.78-0.51c-0.27-0.15-0.55-0.28-0.84-0.39L498.08,501.51z
			 M498.5,498.11c-0.11,0.29-0.24,0.57-0.39,0.84c-0.15,0.27-0.32,0.53-0.51,0.77c0.25,0.56,0.43,1.16,0.51,1.77
			c0.29,0.11,0.57,0.24,0.84,0.39c0.27,0.15,0.53,0.32,0.77,0.51c0.28-0.13,0.57-0.23,0.87-0.32c0.3-0.08,0.6-0.15,0.91-0.19
			c0.11-0.29,0.24-0.57,0.39-0.84c0.15-0.27,0.32-0.53,0.51-0.77c-0.25-0.56-0.43-1.17-0.51-1.77c-0.29-0.11-0.57-0.24-0.84-0.39
			c-0.27-0.15-0.53-0.32-0.77-0.51c-0.28,0.13-0.57,0.23-0.87,0.32C499.11,498.01,498.8,498.07,498.5,498.11z"/>
	</g>
	<g>
		<path class="st0" d="M498.13,501.89c-0.17-0.65-0.44-1.28-0.79-1.86l0-0.02c0.17-0.29,0.32-0.59,0.45-0.91
			c0.13-0.31,0.23-0.64,0.31-0.96l0.01-0.01c0.32-0.08,0.65-0.19,0.96-0.32c0.31-0.13,0.61-0.29,0.9-0.46l0.02,0
			c0.29,0.17,0.59,0.32,0.91,0.45c0.31,0.13,0.64,0.23,0.96,0.31l0.01,0.01c0.17,0.65,0.44,1.29,0.79,1.86l0,0.02
			c-0.17,0.29-0.32,0.59-0.45,0.91c-0.13,0.31-0.23,0.64-0.31,0.96l-0.01,0.01c-0.32,0.08-0.65,0.19-0.96,0.32
			c-0.31,0.13-0.61,0.29-0.9,0.46l-0.02,0c-0.29-0.17-0.59-0.32-0.91-0.45c-0.31-0.13-0.63-0.23-0.96-0.31L498.13,501.89z
			 M498.13,498.16c-0.08,0.33-0.18,0.65-0.31,0.96c-0.13,0.31-0.27,0.61-0.44,0.9c0.35,0.57,0.62,1.2,0.78,1.85
			c0.33,0.08,0.65,0.18,0.96,0.31c0.31,0.13,0.61,0.28,0.9,0.44c0.28-0.17,0.59-0.33,0.89-0.46c0.31-0.13,0.63-0.24,0.95-0.32
			c0.08-0.32,0.18-0.65,0.31-0.96c0.13-0.31,0.27-0.61,0.44-0.9c-0.35-0.57-0.62-1.2-0.78-1.85c-0.32-0.08-0.65-0.18-0.96-0.31
			c-0.31-0.13-0.61-0.28-0.9-0.44c-0.28,0.17-0.59,0.33-0.89,0.46C498.78,497.97,498.45,498.08,498.13,498.16z"/>
	</g>
	<g>
		<path class="st0" d="M498.23,502.28c-0.27-0.68-0.64-1.33-1.1-1.9l0-0.02c0.15-0.33,0.27-0.68,0.36-1.04
			c0.09-0.35,0.16-0.72,0.2-1.08l0.01-0.02c0.34-0.13,0.67-0.29,0.99-0.48c0.32-0.18,0.62-0.39,0.91-0.62l0.02,0
			c0.33,0.15,0.68,0.27,1.04,0.36c0.35,0.09,0.72,0.16,1.08,0.2l0.02,0.01c0.27,0.68,0.64,1.33,1.1,1.9l0,0.02
			c-0.15,0.34-0.27,0.68-0.36,1.04c-0.09,0.35-0.16,0.72-0.2,1.08l-0.01,0.02c-0.34,0.13-0.67,0.29-0.99,0.48
			c-0.32,0.18-0.62,0.39-0.91,0.62l-0.02,0c-0.33-0.15-0.68-0.27-1.04-0.36c-0.35-0.09-0.72-0.16-1.08-0.2L498.23,502.28z
			 M497.74,498.27c-0.04,0.36-0.11,0.72-0.2,1.07c-0.09,0.35-0.22,0.7-0.36,1.03c0.45,0.57,0.82,1.21,1.09,1.89
			c0.36,0.04,0.72,0.11,1.07,0.2c0.35,0.09,0.7,0.22,1.03,0.36c0.28-0.23,0.59-0.43,0.9-0.61c0.32-0.18,0.65-0.34,0.98-0.47
			c0.04-0.36,0.11-0.72,0.2-1.07c0.09-0.35,0.22-0.7,0.36-1.03c-0.45-0.57-0.82-1.21-1.09-1.89c-0.36-0.04-0.72-0.11-1.07-0.2
			c-0.35-0.09-0.7-0.22-1.03-0.36c-0.28,0.23-0.59,0.43-0.9,0.61C498.41,497.97,498.08,498.13,497.74,498.27z"/>
	</g>
	<g>
		<path class="st0" d="M498.4,502.7c-0.38-0.7-0.87-1.35-1.43-1.9l-0.01-0.02c0.11-0.38,0.2-0.77,0.25-1.17
			c0.06-0.39,0.08-0.79,0.08-1.19l0.01-0.02c0.35-0.19,0.69-0.41,1-0.65c0.32-0.24,0.62-0.5,0.9-0.79l0.02-0.01
			c0.38,0.11,0.77,0.2,1.17,0.25c0.39,0.06,0.8,0.08,1.19,0.08l0.02,0.01c0.38,0.7,0.87,1.35,1.43,1.9l0.01,0.02
			c-0.11,0.38-0.2,0.77-0.25,1.17c-0.06,0.39-0.08,0.79-0.08,1.19l-0.01,0.02c-0.35,0.19-0.69,0.41-1,0.65
			c-0.32,0.24-0.62,0.5-0.9,0.79l-0.02,0.01c-0.38-0.11-0.77-0.2-1.17-0.25c-0.39-0.06-0.79-0.08-1.19-0.08L498.4,502.7z
			 M497.33,498.43c0,0.4-0.02,0.79-0.08,1.18c-0.06,0.39-0.14,0.78-0.25,1.16c0.56,0.55,1.05,1.2,1.43,1.89
			c0.4,0,0.79,0.02,1.18,0.08c0.39,0.06,0.78,0.14,1.16,0.25c0.28-0.28,0.58-0.54,0.89-0.78c0.32-0.24,0.65-0.45,1-0.64
			c0-0.39,0.02-0.79,0.08-1.18c0.05-0.39,0.14-0.78,0.25-1.16c-0.56-0.55-1.05-1.2-1.43-1.89c-0.39,0-0.79-0.02-1.19-0.08
			c-0.39-0.06-0.78-0.14-1.16-0.25c-0.28,0.28-0.58,0.54-0.89,0.78C498.02,498.03,497.68,498.24,497.33,498.43z"/>
	</g>
	<g>
		<path class="st0" d="M498.63,503.12c-0.5-0.7-1.11-1.34-1.8-1.86l-0.01-0.02c0.07-0.43,0.11-0.86,0.12-1.29
			c0.01-0.43-0.02-0.87-0.07-1.3l0.01-0.02c0.35-0.25,0.69-0.53,1-0.83c0.31-0.3,0.6-0.63,0.86-0.97l0.02-0.01
			c0.42,0.07,0.86,0.11,1.29,0.12c0.43,0.01,0.87-0.02,1.3-0.07l0.02,0.01c0.5,0.7,1.11,1.34,1.8,1.86l0.01,0.02
			c-0.07,0.43-0.11,0.86-0.12,1.29c-0.01,0.43,0.02,0.87,0.07,1.3l-0.01,0.02c-0.35,0.25-0.69,0.53-1,0.83s-0.6,0.63-0.86,0.97
			l-0.02,0.01c-0.42-0.07-0.86-0.11-1.29-0.12c-0.43-0.01-0.87,0.02-1.3,0.08L498.63,503.12z M496.92,498.66
			c0.06,0.43,0.08,0.86,0.07,1.29c-0.01,0.43-0.05,0.86-0.12,1.29c0.68,0.52,1.29,1.15,1.79,1.85c0.43-0.06,0.86-0.08,1.29-0.07
			c0.43,0.01,0.86,0.05,1.29,0.12c0.26-0.34,0.55-0.66,0.86-0.96c0.31-0.3,0.64-0.58,0.99-0.83c-0.06-0.42-0.08-0.86-0.07-1.29
			c0.01-0.43,0.05-0.86,0.12-1.29c-0.68-0.52-1.29-1.15-1.79-1.85c-0.43,0.06-0.86,0.08-1.29,0.07c-0.43-0.01-0.86-0.05-1.29-0.12
			c-0.26,0.34-0.55,0.66-0.86,0.96C497.6,498.13,497.26,498.41,496.92,498.66z"/>
	</g>
	<g>
		<path class="st0" d="M498.93,503.55c-0.63-0.69-1.38-1.3-2.19-1.77l-0.01-0.02c0.02-0.47,0.01-0.94-0.04-1.41
			c-0.05-0.47-0.13-0.93-0.25-1.39l0.01-0.03c0.35-0.32,0.67-0.66,0.97-1.03c0.3-0.37,0.57-0.76,0.8-1.16l0.02-0.01
			c0.47,0.02,0.94,0.01,1.41-0.04c0.47-0.05,0.93-0.13,1.39-0.25l0.03,0.01c0.63,0.69,1.38,1.3,2.19,1.77l0.01,0.02
			c-0.02,0.47-0.01,0.94,0.04,1.41c0.05,0.47,0.13,0.93,0.25,1.39l-0.01,0.03c-0.35,0.32-0.67,0.66-0.97,1.03
			c-0.3,0.37-0.57,0.76-0.8,1.16l-0.02,0.01c-0.47-0.02-0.94-0.01-1.41,0.04c-0.47,0.05-0.93,0.13-1.39,0.25L498.93,503.55z
			 M496.49,498.96c0.12,0.45,0.2,0.92,0.25,1.38c0.05,0.46,0.06,0.94,0.04,1.4c0.8,0.47,1.55,1.07,2.17,1.76
			c0.45-0.12,0.92-0.2,1.38-0.25c0.47-0.05,0.94-0.06,1.4-0.04c0.24-0.4,0.51-0.79,0.8-1.15c0.29-0.36,0.62-0.71,0.96-1.02
			c-0.12-0.45-0.2-0.92-0.25-1.38c-0.05-0.46-0.06-0.94-0.04-1.4c-0.8-0.47-1.55-1.07-2.17-1.76c-0.45,0.12-0.92,0.2-1.38,0.25
			c-0.46,0.05-0.94,0.06-1.4,0.04c-0.24,0.4-0.51,0.79-0.8,1.15C497.16,498.3,496.84,498.65,496.49,498.96z"/>
	</g>
	<g>
		<path class="st0" d="M499.32,503.97c-0.77-0.66-1.66-1.22-2.59-1.62l-0.02-0.02c-0.04-0.51-0.12-1.02-0.23-1.52
			c-0.11-0.5-0.27-0.99-0.46-1.46l0-0.03c0.33-0.39,0.64-0.8,0.91-1.24c0.27-0.43,0.51-0.89,0.71-1.36l0.02-0.02
			c0.51-0.04,1.02-0.12,1.52-0.23c0.5-0.11,0.99-0.27,1.46-0.46l0.03,0c0.77,0.66,1.66,1.22,2.59,1.62l0.02,0.02
			c0.04,0.51,0.12,1.02,0.23,1.52c0.12,0.5,0.27,0.99,0.46,1.46l0,0.03c-0.33,0.39-0.64,0.8-0.91,1.24
			c-0.27,0.43-0.51,0.89-0.71,1.36l-0.02,0.02c-0.51,0.04-1.02,0.12-1.52,0.23c-0.5,0.11-0.99,0.27-1.46,0.46L499.32,503.97z
			 M496.08,499.34c0.19,0.47,0.34,0.96,0.45,1.46c0.11,0.49,0.19,1,0.23,1.51c0.93,0.4,1.81,0.95,2.58,1.61
			c0.47-0.19,0.96-0.34,1.46-0.45c0.5-0.11,1-0.19,1.51-0.23c0.2-0.46,0.44-0.92,0.71-1.35c0.27-0.43,0.57-0.85,0.9-1.23
			c-0.19-0.47-0.34-0.96-0.45-1.46c-0.11-0.49-0.19-1-0.23-1.51c-0.93-0.4-1.81-0.95-2.58-1.61c-0.47,0.19-0.96,0.34-1.46,0.45
			c-0.5,0.11-1,0.19-1.51,0.23c-0.2,0.46-0.44,0.92-0.71,1.35C496.71,498.55,496.41,498.96,496.08,499.34z"/>
	</g>
	<g>
		<path class="st0" d="M499.79,504.38c-0.92-0.61-1.95-1.09-3.01-1.4l-0.02-0.02c-0.11-0.54-0.26-1.08-0.45-1.6
			c-0.19-0.52-0.42-1.03-0.69-1.52l0-0.03c0.31-0.46,0.58-0.95,0.82-1.45c0.23-0.5,0.43-1.03,0.59-1.56l0.02-0.02
			c0.54-0.11,1.08-0.26,1.6-0.45c0.52-0.19,1.03-0.42,1.52-0.69l0.03,0c0.92,0.61,1.95,1.09,3.01,1.4l0.02,0.02
			c0.11,0.54,0.26,1.08,0.45,1.6c0.19,0.52,0.42,1.03,0.69,1.52l0,0.03c-0.31,0.46-0.58,0.95-0.82,1.45
			c-0.23,0.5-0.43,1.03-0.59,1.56l-0.02,0.02c-0.54,0.11-1.08,0.26-1.6,0.45c-0.52,0.19-1.03,0.42-1.52,0.69L499.79,504.38z
			 M495.68,499.81c0.26,0.48,0.49,0.99,0.68,1.51c0.19,0.52,0.34,1.06,0.45,1.6c1.06,0.31,2.08,0.79,3,1.4
			c0.49-0.26,0.99-0.49,1.51-0.68c0.52-0.19,1.06-0.34,1.6-0.45c0.16-0.53,0.35-1.05,0.59-1.55c0.23-0.5,0.51-0.99,0.81-1.45
			c-0.26-0.48-0.49-0.99-0.68-1.51c-0.19-0.52-0.34-1.05-0.45-1.6c-1.05-0.31-2.08-0.79-3-1.4c-0.48,0.26-0.99,0.49-1.51,0.68
			c-0.52,0.19-1.06,0.34-1.6,0.45c-0.16,0.53-0.35,1.05-0.59,1.55C496.26,498.87,495.99,499.35,495.68,499.81z"/>
	</g>
	<g>
		<path class="st0" d="M500.36,504.75c-1.08-0.54-2.25-0.92-3.44-1.12l-0.03-0.02c-0.19-0.57-0.43-1.13-0.7-1.67
			c-0.27-0.54-0.59-1.06-0.94-1.55l0-0.03c0.27-0.54,0.5-1.1,0.69-1.68c0.19-0.57,0.33-1.17,0.43-1.76l0.02-0.03
			c0.57-0.19,1.13-0.43,1.67-0.7c0.54-0.27,1.06-0.59,1.55-0.94l0.03,0c1.07,0.54,2.25,0.92,3.44,1.12l0.03,0.02
			c0.19,0.57,0.43,1.14,0.7,1.67c0.27,0.54,0.59,1.06,0.94,1.55l0,0.03c-0.27,0.54-0.5,1.1-0.69,1.68
			c-0.19,0.57-0.33,1.17-0.43,1.76l-0.02,0.03c-0.57,0.19-1.13,0.43-1.67,0.7c-0.54,0.27-1.06,0.59-1.55,0.94L500.36,504.75z
			 M495.32,500.37c0.35,0.49,0.66,1.01,0.93,1.54c0.27,0.53,0.51,1.09,0.7,1.66c1.18,0.2,2.35,0.58,3.42,1.11
			c0.49-0.35,1.01-0.66,1.54-0.94c0.54-0.27,1.09-0.51,1.66-0.7c0.1-0.59,0.24-1.18,0.43-1.75c0.19-0.57,0.42-1.13,0.68-1.67
			c-0.35-0.49-0.66-1.01-0.93-1.54c-0.27-0.53-0.51-1.09-0.7-1.66c-1.18-0.2-2.35-0.58-3.42-1.11c-0.49,0.35-1.01,0.66-1.54,0.93
			c-0.54,0.27-1.09,0.51-1.66,0.7c-0.1,0.59-0.24,1.18-0.43,1.75C495.82,499.27,495.59,499.83,495.32,500.37z"/>
	</g>
	<g>
		<path class="st0" d="M501.01,505.08c-1.23-0.44-2.55-0.69-3.86-0.75l-0.03-0.02c-0.28-0.59-0.61-1.17-0.98-1.71
			c-0.37-0.54-0.78-1.06-1.22-1.55l-0.01-0.04c0.22-0.62,0.39-1.26,0.52-1.9c0.13-0.64,0.2-1.3,0.23-1.96l0.02-0.03
			c0.59-0.28,1.17-0.61,1.71-0.98c0.54-0.37,1.06-0.78,1.55-1.22l0.04-0.01c1.23,0.44,2.55,0.7,3.86,0.75l0.03,0.02
			c0.28,0.59,0.61,1.17,0.98,1.71c0.37,0.54,0.78,1.06,1.22,1.54l0.01,0.04c-0.22,0.62-0.39,1.25-0.52,1.9
			c-0.13,0.64-0.2,1.3-0.23,1.96l-0.02,0.03c-0.59,0.28-1.17,0.61-1.71,0.98c-0.54,0.37-1.06,0.78-1.54,1.22L501.01,505.08z
			 M495,501.02c0.44,0.48,0.85,1,1.21,1.54c0.36,0.54,0.69,1.11,0.97,1.7c1.3,0.06,2.61,0.31,3.83,0.75c0.48-0.44,1-0.85,1.54-1.21
			c0.54-0.36,1.11-0.69,1.7-0.97c0.03-0.65,0.11-1.3,0.23-1.95c0.12-0.64,0.3-1.28,0.51-1.89c-0.44-0.48-0.85-1-1.21-1.54
			c-0.36-0.54-0.69-1.11-0.97-1.7c-1.3-0.06-2.61-0.31-3.83-0.75c-0.48,0.44-1,0.85-1.54,1.21c-0.54,0.36-1.11,0.69-1.7,0.97
			c-0.03,0.65-0.11,1.3-0.23,1.95C495.39,499.77,495.22,500.4,495,501.02z"/>
	</g>
	<g>
		<path class="st0" d="M501.77,505.34c-1.39-0.31-2.84-0.41-4.26-0.3l-0.04-0.02c-0.38-0.6-0.81-1.18-1.28-1.72
			c-0.47-0.54-0.98-1.04-1.52-1.51l-0.01-0.04c0.15-0.69,0.26-1.41,0.31-2.12c0.05-0.71,0.05-1.43-0.01-2.14l0.02-0.04
			c0.6-0.38,1.18-0.81,1.72-1.28c0.54-0.47,1.05-0.98,1.51-1.52l0.04-0.01c1.38,0.31,2.84,0.41,4.26,0.3l0.04,0.02
			c0.38,0.6,0.81,1.18,1.28,1.72c0.47,0.54,0.98,1.04,1.52,1.51l0.01,0.04c-0.15,0.69-0.26,1.41-0.31,2.12
			c-0.05,0.71-0.05,1.43,0.01,2.14l-0.02,0.04c-0.6,0.38-1.18,0.81-1.72,1.28c-0.54,0.47-1.04,0.98-1.51,1.52L501.77,505.34z
			 M494.74,501.76c0.54,0.46,1.05,0.96,1.51,1.5c0.46,0.53,0.89,1.11,1.27,1.71c1.41-0.11,2.86-0.01,4.24,0.3
			c0.46-0.54,0.96-1.05,1.5-1.51c0.54-0.47,1.11-0.89,1.71-1.27c-0.06-0.7-0.06-1.42-0.01-2.13c0.05-0.71,0.15-1.42,0.31-2.11
			c-0.54-0.46-1.05-0.96-1.51-1.5c-0.46-0.53-0.89-1.11-1.27-1.71c-1.41,0.11-2.86,0.01-4.24-0.3c-0.46,0.54-0.96,1.05-1.5,1.51
			c-0.54,0.46-1.11,0.89-1.71,1.27c0.06,0.7,0.06,1.42,0.01,2.13C495,500.36,494.89,501.07,494.74,501.76z"/>
	</g>
	<g>
		<path class="st0" d="M502.61,505.53c-1.54-0.15-3.12-0.07-4.63,0.24l-0.04-0.01c-0.49-0.6-1.03-1.16-1.61-1.68
			c-0.57-0.52-1.19-1-1.84-1.42l-0.02-0.04c0.08-0.77,0.09-1.55,0.05-2.33c-0.04-0.77-0.14-1.55-0.3-2.31l0.01-0.04
			c0.6-0.49,1.16-1.03,1.68-1.61c0.52-0.58,1-1.2,1.42-1.84l0.04-0.02c1.53,0.15,3.12,0.07,4.63-0.24l0.04,0.01
			c0.49,0.6,1.03,1.17,1.61,1.68c0.58,0.52,1.2,1,1.84,1.42l0.02,0.04c-0.08,0.77-0.09,1.55-0.05,2.33c0.04,0.77,0.14,1.55,0.3,2.31
			l-0.01,0.04c-0.6,0.49-1.16,1.03-1.68,1.61c-0.52,0.57-1,1.19-1.42,1.84L502.61,505.53z M494.56,502.6
			c0.64,0.42,1.26,0.9,1.83,1.42c0.57,0.52,1.11,1.08,1.6,1.67c1.51-0.31,3.08-0.39,4.61-0.24c0.43-0.64,0.9-1.26,1.42-1.83
			c0.52-0.57,1.08-1.11,1.67-1.6c-0.15-0.75-0.25-1.53-0.29-2.3c-0.04-0.77-0.02-1.55,0.05-2.31c-0.64-0.42-1.26-0.9-1.83-1.42
			c-0.57-0.51-1.11-1.08-1.6-1.67c-1.5,0.31-3.08,0.39-4.61,0.24c-0.42,0.64-0.9,1.26-1.42,1.83c-0.52,0.57-1.08,1.11-1.67,1.6
			c0.15,0.75,0.25,1.53,0.29,2.3C494.65,501.05,494.63,501.83,494.56,502.6z"/>
	</g>
	<g>
		<path class="st0" d="M503.55,505.62c-1.68,0.04-3.38,0.34-4.97,0.88l-0.05-0.01c-0.61-0.58-1.27-1.12-1.96-1.6
			c-0.69-0.48-1.42-0.92-2.17-1.29l-0.03-0.04c-0.02-0.84-0.11-1.69-0.25-2.52c-0.15-0.83-0.36-1.66-0.62-2.45l0.01-0.05
			c0.58-0.61,1.12-1.27,1.6-1.96c0.48-0.69,0.92-1.42,1.29-2.17l0.04-0.03c1.68-0.04,3.38-0.34,4.97-0.88l0.05,0.01
			c0.61,0.58,1.27,1.12,1.96,1.6c0.69,0.48,1.42,0.92,2.17,1.29l0.03,0.04c0.02,0.84,0.11,1.69,0.25,2.52
			c0.15,0.83,0.36,1.66,0.62,2.45l-0.01,0.05c-0.58,0.61-1.12,1.27-1.6,1.96c-0.48,0.69-0.92,1.42-1.29,2.17L503.55,505.62z
			 M494.47,503.52c0.75,0.37,1.48,0.81,2.16,1.29c0.69,0.48,1.34,1.02,1.95,1.59c1.58-0.53,3.27-0.83,4.94-0.87
			c0.37-0.75,0.81-1.48,1.29-2.16c0.48-0.69,1.02-1.34,1.59-1.95c-0.26-0.79-0.47-1.61-0.62-2.44c-0.15-0.83-0.23-1.67-0.25-2.5
			c-0.75-0.37-1.47-0.81-2.16-1.29c-0.68-0.48-1.34-1.01-1.95-1.59c-1.58,0.53-3.27,0.83-4.94,0.87c-0.37,0.75-0.81,1.48-1.29,2.16
			c-0.48,0.69-1.02,1.34-1.59,1.95c0.26,0.79,0.47,1.61,0.62,2.44C494.37,501.85,494.45,502.69,494.47,503.52z"/>
	</g>
	<g>
		<path class="st0" d="M504.58,505.59c-1.81,0.27-3.6,0.81-5.24,1.6l-0.05,0c-0.73-0.54-1.52-1.04-2.32-1.47
			c-0.81-0.43-1.65-0.8-2.52-1.11l-0.03-0.04c-0.13-0.9-0.34-1.8-0.6-2.68c-0.27-0.88-0.6-1.74-1-2.56l0-0.05
			c0.54-0.73,1.04-1.51,1.47-2.32c0.43-0.81,0.8-1.66,1.11-2.52l0.04-0.03c1.8-0.26,3.6-0.81,5.24-1.6l0.05,0
			c0.74,0.55,1.52,1.04,2.32,1.47c0.81,0.43,1.66,0.8,2.52,1.1l0.03,0.04c0.13,0.9,0.34,1.8,0.6,2.68c0.27,0.88,0.6,1.74,1,2.56
			l0,0.05c-0.54,0.73-1.04,1.51-1.47,2.32c-0.43,0.81-0.8,1.65-1.1,2.52L504.58,505.59z M494.5,504.53c0.86,0.3,1.7,0.67,2.5,1.1
			c0.8,0.43,1.58,0.92,2.31,1.46c1.64-0.78,3.42-1.33,5.21-1.59c0.3-0.86,0.67-1.7,1.1-2.5c0.43-0.8,0.92-1.58,1.46-2.31
			c-0.39-0.82-0.72-1.68-0.99-2.55c-0.27-0.87-0.47-1.77-0.6-2.67c-0.86-0.3-1.7-0.67-2.5-1.1c-0.8-0.43-1.58-0.92-2.31-1.46
			c-1.64,0.78-3.42,1.33-5.21,1.59c-0.3,0.86-0.67,1.7-1.1,2.5c-0.43,0.8-0.92,1.58-1.46,2.31c0.39,0.82,0.72,1.68,0.99,2.55
			C494.17,502.74,494.37,503.63,494.5,504.53z"/>
	</g>
	<g>
		<path class="st0" d="M505.68,505.43c-1.91,0.53-3.77,1.36-5.44,2.42l-0.06,0c-0.86-0.49-1.77-0.92-2.7-1.28
			c-0.93-0.36-1.89-0.65-2.86-0.86l-0.04-0.04c-0.26-0.96-0.6-1.9-1.01-2.81c-0.41-0.91-0.88-1.8-1.42-2.63l0-0.06
			c0.49-0.86,0.92-1.77,1.28-2.7c0.36-0.93,0.65-1.89,0.86-2.86l0.04-0.04c1.91-0.52,3.78-1.36,5.44-2.42l0.06,0
			c0.87,0.49,1.77,0.92,2.7,1.28c0.93,0.36,1.89,0.64,2.86,0.86l0.04,0.04c0.26,0.96,0.6,1.9,1.01,2.81
			c0.41,0.91,0.88,1.8,1.42,2.63l0,0.06c-0.49,0.86-0.92,1.77-1.28,2.7c-0.36,0.93-0.64,1.89-0.86,2.86L505.68,505.43z
			 M494.67,505.62c0.97,0.21,1.92,0.5,2.85,0.86c0.92,0.35,1.83,0.78,2.69,1.27c1.67-1.06,3.51-1.88,5.41-2.41
			c0.21-0.97,0.5-1.92,0.86-2.85c0.36-0.92,0.78-1.83,1.27-2.69c-0.53-0.83-1-1.71-1.41-2.62c-0.4-0.91-0.74-1.85-1-2.8
			c-0.96-0.21-1.92-0.5-2.84-0.86c-0.92-0.35-1.83-0.78-2.69-1.27c-1.66,1.06-3.52,1.89-5.41,2.41c-0.21,0.96-0.5,1.92-0.86,2.85
			c-0.36,0.92-0.78,1.83-1.27,2.69c0.53,0.83,1,1.71,1.41,2.62C494.07,503.73,494.41,504.67,494.67,505.62z"/>
	</g>
	<g>
		<path class="st0" d="M506.84,505.1c-1.99,0.82-3.89,1.96-5.55,3.34l-0.06,0.01c-1-0.41-2.03-0.76-3.08-1.02
			c-1.05-0.26-2.13-0.45-3.2-0.55l-0.05-0.04c-0.41-1-0.9-1.97-1.46-2.9c-0.56-0.93-1.19-1.82-1.88-2.65l-0.01-0.06
			c0.41-1,0.76-2.03,1.02-3.08c0.26-1.05,0.45-2.13,0.55-3.2l0.04-0.05c1.99-0.82,3.89-1.96,5.55-3.34l0.06-0.01
			c1,0.42,2.04,0.76,3.08,1.02c1.05,0.26,2.13,0.45,3.2,0.55l0.05,0.04c0.41,1,0.9,1.97,1.46,2.9c0.56,0.93,1.19,1.82,1.88,2.65
			l0.01,0.06c-0.41,1-0.76,2.03-1.02,3.08c-0.26,1.05-0.44,2.12-0.55,3.2L506.84,505.1z M494.99,506.77
			c1.07,0.1,2.14,0.29,3.18,0.55c1.04,0.26,2.07,0.6,3.07,1.01c1.66-1.36,3.54-2.5,5.52-3.32c0.1-1.07,0.29-2.14,0.55-3.18
			c0.26-1.04,0.6-2.08,1.01-3.07c-0.68-0.83-1.31-1.71-1.86-2.64c-0.55-0.92-1.04-1.89-1.45-2.88c-1.07-0.1-2.14-0.29-3.18-0.55
			c-1.04-0.26-2.07-0.6-3.07-1.01c-1.65,1.36-3.54,2.5-5.52,3.32c-0.1,1.07-0.29,2.14-0.55,3.18c-0.26,1.04-0.6,2.08-1.01,3.07
			c0.68,0.83,1.31,1.71,1.86,2.64C494.09,504.81,494.58,505.78,494.99,506.77z"/>
	</g>
	<g>
		<path class="st0" d="M508.06,504.6c-2.04,1.15-3.94,2.63-5.55,4.33l-0.06,0.02c-1.13-0.32-2.3-0.55-3.46-0.69
			c-1.17-0.14-2.35-0.2-3.53-0.17l-0.06-0.03c-0.58-1.02-1.23-2.01-1.96-2.94c-0.72-0.93-1.52-1.81-2.38-2.61l-0.02-0.06
			c0.31-1.13,0.55-2.29,0.69-3.46c0.14-1.17,0.2-2.35,0.17-3.53l0.03-0.06c2.04-1.15,3.94-2.63,5.55-4.33l0.06-0.02
			c1.13,0.32,2.3,0.55,3.46,0.69c1.17,0.14,2.35,0.2,3.53,0.17l0.06,0.03c0.58,1.02,1.23,2.01,1.96,2.94
			c0.72,0.93,1.52,1.81,2.38,2.61l0.02,0.06c-0.31,1.13-0.55,2.29-0.69,3.46c-0.14,1.16-0.2,2.35-0.17,3.53L508.06,504.6z
			 M495.5,507.96c1.17-0.03,2.35,0.03,3.51,0.17c1.16,0.14,2.32,0.37,3.44,0.68c1.61-1.69,3.49-3.16,5.52-4.31
			c-0.03-1.17,0.03-2.35,0.17-3.51c0.14-1.16,0.37-2.32,0.69-3.44c-0.85-0.8-1.64-1.68-2.36-2.6c-0.72-0.92-1.38-1.9-1.95-2.92
			c-1.17,0.03-2.34-0.03-3.51-0.17c-1.16-0.14-2.32-0.37-3.44-0.69c-1.6,1.69-3.49,3.17-5.52,4.31c0.03,1.17-0.03,2.35-0.17,3.51
			c-0.14,1.16-0.37,2.32-0.68,3.44c0.85,0.8,1.64,1.68,2.36,2.6C494.27,505.97,494.92,506.95,495.5,507.96z"/>
	</g>
	<g>
		<path class="st0" d="M509.3,503.89c-2.05,1.51-3.9,3.36-5.41,5.41l-0.07,0.03c-1.26-0.19-2.55-0.29-3.83-0.29
			c-1.28,0-2.56,0.1-3.83,0.29l-0.07-0.03c-0.76-1.03-1.6-2-2.5-2.91c-0.9-0.9-1.88-1.75-2.91-2.5l-0.03-0.07
			c0.19-1.26,0.29-2.55,0.29-3.83c0-1.28-0.1-2.57-0.29-3.83l0.03-0.07c2.05-1.51,3.9-3.36,5.41-5.41l0.07-0.03
			c1.26,0.19,2.55,0.29,3.83,0.29c1.28,0,2.57-0.1,3.83-0.29l0.07,0.03c0.76,1.03,1.6,2,2.5,2.91c0.9,0.9,1.88,1.75,2.91,2.5
			l0.03,0.07c-0.19,1.26-0.29,2.55-0.29,3.83c0,1.27,0.1,2.56,0.29,3.83L509.3,503.89z M496.2,509.19c1.26-0.19,2.54-0.28,3.81-0.28
			c1.27,0,2.55,0.1,3.81,0.28c1.51-2.04,3.34-3.87,5.38-5.38c-0.19-1.26-0.28-2.54-0.28-3.81c0-1.27,0.1-2.55,0.28-3.8
			c-1.02-0.75-1.99-1.59-2.89-2.49c-0.9-0.9-1.74-1.87-2.49-2.89c-1.25,0.19-2.53,0.28-3.8,0.28c-1.27,0-2.55-0.1-3.81-0.28
			c-1.5,2.04-3.35,3.88-5.38,5.38c0.19,1.25,0.28,2.53,0.28,3.81c0,1.27-0.1,2.55-0.28,3.8c1.02,0.75,1.99,1.59,2.89,2.49
			C494.6,507.2,495.44,508.17,496.2,509.19z"/>
	</g>
	<g>
		<path class="st0" d="M510.55,502.97c-2.01,1.9-3.76,4.14-5.12,6.55l-0.07,0.04c-1.39-0.04-2.79,0.03-4.17,0.2
			c-1.38,0.17-2.75,0.44-4.09,0.82l-0.07-0.02c-0.95-1.01-1.99-1.95-3.09-2.81c-1.1-0.86-2.26-1.64-3.47-2.31l-0.04-0.07
			c0.04-1.38-0.03-2.79-0.2-4.16c-0.17-1.38-0.44-2.76-0.82-4.09l0.02-0.07c2.01-1.9,3.77-4.15,5.12-6.55l0.07-0.04
			c1.39,0.04,2.79-0.03,4.17-0.2c1.38-0.17,2.76-0.45,4.09-0.82l0.07,0.02c0.95,1.01,1.99,1.95,3.09,2.81
			c1.1,0.86,2.26,1.64,3.47,2.31l0.04,0.07c-0.04,1.38,0.03,2.78,0.2,4.16c0.17,1.37,0.44,2.75,0.82,4.09L510.55,502.97z
			 M497.11,510.42c1.33-0.37,2.7-0.64,4.07-0.81c1.37-0.17,2.76-0.24,4.14-0.2c1.36-2.4,3.1-4.62,5.09-6.52
			c-0.37-1.33-0.64-2.7-0.81-4.07c-0.17-1.37-0.23-2.77-0.2-4.14c-1.2-0.68-2.36-1.45-3.45-2.31c-1.09-0.85-2.12-1.79-3.07-2.79
			c-1.33,0.37-2.7,0.64-4.07,0.81c-1.37,0.17-2.76,0.23-4.14,0.2c-1.35,2.39-3.1,4.63-5.09,6.52c0.37,1.33,0.64,2.7,0.81,4.07
			c0.17,1.37,0.23,2.77,0.2,4.14c1.2,0.68,2.36,1.45,3.45,2.31C495.13,508.48,496.16,509.42,497.11,510.42z"/>
	</g>
	<g>
		<path class="st0" d="M511.78,501.8c-1.92,2.32-3.51,4.97-4.66,7.75l-0.07,0.05c-1.5,0.14-3,0.4-4.47,0.76
			c-1.46,0.36-2.91,0.84-4.3,1.42l-0.08-0.01c-1.16-0.96-2.4-1.84-3.7-2.62c-1.3-0.78-2.66-1.46-4.05-2.04l-0.05-0.07
			c-0.14-1.5-0.4-3-0.76-4.47c-0.37-1.47-0.84-2.91-1.42-4.3l0.01-0.08c1.92-2.31,3.51-4.97,4.66-7.75l0.07-0.05
			c1.5-0.14,3.01-0.4,4.47-0.76c1.47-0.37,2.91-0.85,4.3-1.42l0.08,0.01c1.16,0.96,2.4,1.84,3.7,2.62c1.3,0.78,2.66,1.46,4.05,2.04
			l0.05,0.07c0.14,1.5,0.4,3,0.76,4.47c0.36,1.46,0.84,2.91,1.42,4.3L511.78,501.8z M498.26,511.62c1.39-0.57,2.83-1.05,4.28-1.41
			c1.46-0.36,2.95-0.62,4.44-0.76c1.15-2.77,2.73-5.4,4.63-7.71c-0.58-1.39-1.05-2.83-1.41-4.28c-0.36-1.46-0.62-2.95-0.76-4.44
			c-1.38-0.57-2.74-1.26-4.03-2.03c-1.29-0.77-2.53-1.65-3.68-2.6c-1.38,0.57-2.82,1.05-4.28,1.41c-1.45,0.36-2.95,0.62-4.44,0.76
			c-1.14,2.76-2.73,5.4-4.63,7.71c0.57,1.38,1.05,2.82,1.41,4.28c0.36,1.46,0.62,2.95,0.76,4.44c1.38,0.57,2.74,1.26,4.03,2.03
			C495.87,509.79,497.11,510.67,498.26,511.62z"/>
	</g>
	<g>
		<path class="st0" d="M512.95,500.38c-1.76,2.76-3.13,5.82-4,8.98l-0.07,0.06c-1.6,0.35-3.19,0.83-4.72,1.42
			c-1.53,0.59-3.03,1.29-4.46,2.1l-0.09,0c-1.38-0.88-2.84-1.67-4.34-2.34c-1.5-0.67-3.06-1.23-4.64-1.66l-0.06-0.07
			c-0.35-1.6-0.83-3.18-1.42-4.72c-0.59-1.53-1.3-3.03-2.11-4.46l0-0.09c1.76-2.75,3.13-5.83,4-8.98l0.07-0.06
			c1.6-0.35,3.19-0.83,4.72-1.41c1.53-0.59,3.03-1.3,4.45-2.11l0.09,0c1.38,0.88,2.84,1.67,4.34,2.34c1.5,0.67,3.06,1.23,4.64,1.66
			l0.06,0.07c0.35,1.6,0.83,3.18,1.42,4.72c0.59,1.53,1.29,3.03,2.11,4.45L512.95,500.38z M499.67,512.77
			c1.42-0.8,2.91-1.51,4.43-2.09c1.52-0.58,3.1-1.06,4.69-1.41c0.87-3.14,2.23-6.18,3.98-8.93c-0.81-1.42-1.51-2.91-2.09-4.43
			c-0.58-1.53-1.06-3.1-1.41-4.69c-1.57-0.43-3.12-0.99-4.61-1.66c-1.49-0.66-2.95-1.44-4.32-2.32c-1.42,0.8-2.91,1.5-4.43,2.09
			c-1.52,0.58-3.1,1.06-4.69,1.41c-0.87,3.13-2.23,6.19-3.98,8.93c0.8,1.42,1.51,2.91,2.09,4.43c0.58,1.52,1.06,3.1,1.41,4.69
			c1.57,0.43,3.12,0.99,4.61,1.66C496.84,511.11,498.29,511.89,499.67,512.77z"/>
	</g>
	<g>
		<path class="st0" d="M514.02,498.7c-1.54,3.21-2.6,6.7-3.12,10.22l-0.06,0.08c-1.68,0.59-3.33,1.32-4.9,2.15
			c-1.57,0.84-3.1,1.8-4.53,2.86l-0.1,0.01c-1.6-0.77-3.28-1.42-4.99-1.94c-1.71-0.52-3.47-0.92-5.22-1.18l-0.08-0.06
			c-0.59-1.68-1.32-3.33-2.15-4.9c-0.84-1.58-1.8-3.1-2.86-4.53l-0.01-0.1c1.54-3.2,2.61-6.7,3.12-10.22l0.06-0.08
			c1.68-0.59,3.33-1.32,4.9-2.15c1.58-0.84,3.1-1.8,4.53-2.86l0.1-0.01c1.6,0.77,3.28,1.42,4.99,1.94c1.71,0.52,3.47,0.92,5.22,1.18
			l0.08,0.06c0.59,1.68,1.32,3.33,2.15,4.9c0.83,1.57,1.8,3.09,2.86,4.53L514.02,498.7z M501.33,513.82
			c1.42-1.05,2.94-2.01,4.51-2.84c1.57-0.83,3.21-1.55,4.87-2.15c0.52-3.5,1.58-6.97,3.11-10.16c-1.06-1.43-2.01-2.94-2.84-4.5
			c-0.83-1.57-1.55-3.21-2.14-4.87c-1.75-0.26-3.5-0.66-5.2-1.18c-1.7-0.52-3.37-1.17-4.97-1.93c-1.42,1.05-2.94,2.01-4.5,2.84
			c-1.56,0.83-3.2,1.55-4.88,2.14c-0.52,3.49-1.58,6.98-3.11,10.16c1.05,1.42,2.01,2.94,2.84,4.51c0.83,1.57,1.55,3.21,2.14,4.87
			c1.75,0.26,3.5,0.66,5.2,1.18C498.06,512.41,499.73,513.06,501.33,513.82z"/>
	</g>
	<g>
		<path class="st0" d="M514.95,496.74c-1.23,3.67-1.92,7.57-2.02,11.44l-0.06,0.09c-1.73,0.86-3.42,1.86-5,2.97
			c-1.59,1.11-3.1,2.35-4.51,3.69l-0.11,0.02c-1.83-0.62-3.73-1.1-5.64-1.44c-1.91-0.34-3.86-0.53-5.79-0.58l-0.09-0.06
			c-0.86-1.73-1.86-3.41-2.97-5c-1.11-1.59-2.35-3.11-3.69-4.51l-0.02-0.11c1.23-3.66,1.93-7.58,2.02-11.43l0.06-0.09
			c1.74-0.86,3.42-1.86,5.01-2.97c1.59-1.11,3.1-2.35,4.5-3.69l0.11-0.02c1.83,0.62,3.73,1.1,5.64,1.44
			c1.91,0.34,3.86,0.53,5.79,0.58l0.09,0.06c0.86,1.73,1.86,3.41,2.97,5c1.11,1.58,2.35,3.1,3.69,4.5L514.95,496.74z M503.27,514.73
			c1.4-1.33,2.91-2.56,4.48-3.66c1.58-1.11,3.25-2.1,4.98-2.96c0.1-3.85,0.79-7.73,2.01-11.37c-1.33-1.4-2.56-2.91-3.66-4.48
			c-1.11-1.58-2.1-3.26-2.96-4.97c-1.92-0.05-3.86-0.25-5.76-0.58c-1.9-0.34-3.79-0.81-5.61-1.42c-1.39,1.32-2.9,2.55-4.48,3.66
			c-1.57,1.1-3.25,2.1-4.98,2.96c-0.1,3.84-0.78,7.73-2.01,11.37c1.32,1.4,2.56,2.9,3.66,4.48c1.11,1.58,2.1,3.25,2.96,4.97
			c1.92,0.05,3.86,0.25,5.76,0.58C499.56,513.64,501.44,514.12,503.27,514.73z"/>
	</g>
	<g>
		<path class="st0" d="M515.7,494.5c-0.84,4.12-1.07,8.42-0.66,12.6l-0.05,0.11c-1.76,1.16-3.44,2.46-5.01,3.87
			c-1.57,1.41-3.04,2.95-4.37,4.57l-0.11,0.04c-2.06-0.42-4.17-0.69-6.28-0.8c-2.11-0.11-4.24-0.06-6.33,0.14l-0.11-0.05
			c-1.16-1.75-2.46-3.44-3.87-5.01c-1.41-1.57-2.95-3.04-4.58-4.37l-0.04-0.11c0.85-4.11,1.07-8.43,0.66-12.6l0.05-0.11
			c1.76-1.16,3.45-2.46,5.01-3.87c1.57-1.41,3.04-2.95,4.37-4.57l0.11-0.04c2.06,0.42,4.17,0.69,6.28,0.8
			c2.11,0.11,4.24,0.06,6.33-0.14l0.11,0.05c1.16,1.75,2.46,3.44,3.87,5.01c1.41,1.56,2.94,3.03,4.58,4.37L515.7,494.5z
			 M505.48,515.46c1.33-1.62,2.8-3.15,4.35-4.55c1.56-1.4,3.23-2.7,4.98-3.85c-0.4-4.16-0.18-8.44,0.66-12.54
			c-1.62-1.33-3.15-2.8-4.55-4.35c-1.4-1.56-2.7-3.23-3.85-4.98c-2.08,0.2-4.2,0.25-6.29,0.14c-2.1-0.11-4.2-0.38-6.24-0.79
			c-1.33,1.61-2.79,3.14-4.35,4.55c-1.55,1.4-3.23,2.69-4.98,3.85c0.4,4.15,0.18,8.45-0.66,12.54c1.61,1.33,3.14,2.79,4.55,4.35
			c1.4,1.56,2.7,3.23,3.85,4.98c2.08-0.2,4.2-0.25,6.29-0.14C501.33,514.78,503.43,515.04,505.48,515.46z"/>
	</g>
	<g>
		<path class="st0" d="M516.21,491.99c-0.37,4.55-0.04,9.23,0.96,13.69l-0.04,0.12c-1.74,1.48-3.39,3.11-4.89,4.84
			c-1.5,1.73-2.89,3.58-4.11,5.51l-0.11,0.06c-2.28-0.18-4.59-0.19-6.88-0.03c-2.29,0.16-4.58,0.49-6.81,0.99l-0.12-0.04
			c-1.48-1.74-3.11-3.38-4.84-4.89c-1.73-1.5-3.59-2.89-5.52-4.11l-0.06-0.11c0.37-4.54,0.04-9.24-0.96-13.68l0.04-0.12
			c1.75-1.49,3.39-3.11,4.89-4.84c1.5-1.73,2.89-3.59,4.11-5.51l0.11-0.06c2.28,0.18,4.59,0.19,6.88,0.03
			c2.29-0.16,4.58-0.49,6.81-0.99l0.12,0.04c1.48,1.74,3.11,3.38,4.84,4.89c1.72,1.5,3.58,2.88,5.52,4.11L516.21,491.99z
			 M507.95,515.95c1.22-1.92,2.6-3.76,4.09-5.48c1.49-1.72,3.13-3.34,4.86-4.82c-0.98-4.44-1.31-9.08-0.95-13.61
			c-1.92-1.23-3.77-2.6-5.48-4.09c-1.72-1.5-3.34-3.13-4.81-4.86c-2.22,0.49-4.5,0.82-6.77,0.98c-2.28,0.16-4.58,0.15-6.84-0.03
			c-1.22,1.91-2.6,3.76-4.09,5.48c-1.49,1.71-3.12,3.33-4.86,4.81c0.99,4.43,1.31,9.09,0.95,13.61c1.92,1.22,3.76,2.6,5.48,4.09
			c1.72,1.5,3.34,3.13,4.81,4.86c2.22-0.49,4.49-0.82,6.77-0.98C503.39,515.76,505.69,515.77,507.95,515.95z"/>
	</g>
	<g>
		<path class="st0" d="M516.42,489.21c0.21,4.96,1.18,9.96,2.85,14.64l-0.03,0.14c-1.68,1.83-3.24,3.8-4.63,5.87
			c-1.39,2.06-2.64,4.25-3.71,6.49l-0.12,0.08c-2.48,0.1-4.98,0.4-7.43,0.87c-2.45,0.48-4.87,1.14-7.21,1.97l-0.14-0.03
			c-1.83-1.68-3.8-3.24-5.87-4.63c-2.07-1.39-4.25-2.64-6.5-3.71l-0.08-0.12c-0.2-4.95-1.18-9.97-2.85-14.64l0.03-0.14
			c1.69-1.83,3.25-3.81,4.63-5.87c1.39-2.07,2.64-4.25,3.7-6.49l0.12-0.08c2.48-0.1,4.98-0.4,7.43-0.87
			c2.45-0.48,4.87-1.14,7.21-1.97l0.14,0.03c1.83,1.68,3.8,3.24,5.87,4.63c2.06,1.39,4.24,2.63,6.49,3.7L516.42,489.21z
			 M510.7,516.16c1.06-2.23,2.31-4.4,3.69-6.45c1.38-2.05,2.93-4.02,4.6-5.84c-1.65-4.66-2.61-9.62-2.83-14.56
			c-2.24-1.07-4.41-2.31-6.46-3.69c-2.05-1.39-4.02-2.94-5.84-4.6c-2.33,0.82-4.74,1.48-7.17,1.95c-2.43,0.47-4.92,0.77-7.38,0.88
			c-1.06,2.23-2.3,4.4-3.69,6.45c-1.38,2.05-2.93,4.01-4.61,5.84c1.65,4.64,2.62,9.63,2.83,14.56c2.23,1.06,4.4,2.3,6.46,3.69
			c2.05,1.39,4.02,2.94,5.84,4.6c2.33-0.82,4.74-1.48,7.17-1.95C505.74,516.56,508.23,516.26,510.7,516.16z"/>
	</g>
	<g>
		<path class="st0" d="M516.29,486.18c0.88,5.33,2.59,10.59,5.01,15.41l-0.01,0.15c-1.57,2.2-2.99,4.53-4.22,6.94
			c-1.23,2.41-2.28,4.93-3.14,7.5l-0.12,0.1c-2.66,0.44-5.32,1.09-7.9,1.93c-2.58,0.84-5.11,1.87-7.52,3.08l-0.15-0.01
			c-2.19-1.57-4.53-2.99-6.94-4.22c-2.41-1.23-4.94-2.28-7.5-3.14l-0.1-0.12c-0.88-5.31-2.59-10.6-5.01-15.41l0.01-0.15
			c1.58-2.2,3-4.54,4.22-6.94c1.23-2.41,2.28-4.94,3.14-7.49l0.12-0.1c2.66-0.44,5.32-1.09,7.9-1.93c2.58-0.84,5.11-1.87,7.52-3.08
			l0.15,0.01c2.19,1.57,4.53,2.99,6.94,4.22c2.4,1.22,4.93,2.28,7.5,3.13L516.29,486.18z M513.68,516.01
			c0.85-2.55,1.9-5.06,3.13-7.45c1.22-2.4,2.63-4.72,4.19-6.91c-2.4-4.81-4.1-10.04-4.98-15.33c-2.56-0.85-5.06-1.91-7.45-3.12
			c-2.4-1.23-4.72-2.64-6.91-4.19c-2.4,1.2-4.92,2.23-7.48,3.06c-2.56,0.83-5.2,1.48-7.85,1.92c-0.85,2.54-1.9,5.05-3.12,7.45
			c-1.22,2.39-2.63,4.72-4.19,6.91c2.4,4.79,4.1,10.05,4.98,15.33c2.55,0.85,5.06,1.9,7.46,3.13c2.4,1.22,4.72,2.63,6.91,4.19
			c2.4-1.2,4.92-2.23,7.48-3.06C508.39,517.1,511.03,516.46,513.68,516.01z"/>
	</g>
	<g>
		<path class="st0" d="M515.74,482.94c1.66,5.63,4.2,11.08,7.45,15.97l0.01,0.16c-1.4,2.58-2.63,5.29-3.63,8.05
			c-1.01,2.76-1.81,5.62-2.39,8.5l-0.11,0.12c-2.81,0.83-5.59,1.88-8.26,3.12c-2.67,1.24-5.26,2.7-7.7,4.32l-0.16,0.01
			c-2.58-1.4-5.28-2.63-8.05-3.63c-2.77-1.01-5.63-1.81-8.51-2.39l-0.12-0.11c-1.65-5.62-4.2-11.09-7.45-15.97l-0.01-0.16
			c1.41-2.58,2.63-5.29,3.64-8.05c1-2.77,1.81-5.63,2.39-8.5l0.11-0.12c2.81-0.83,5.59-1.88,8.26-3.12c2.67-1.24,5.26-2.7,7.7-4.32
			l0.16-0.01c2.57,1.4,5.28,2.62,8.05,3.63c2.76,1,5.62,1.81,8.5,2.39L515.74,482.94z M516.88,515.46c0.58-2.86,1.38-5.71,2.39-8.45
			c1-2.75,2.21-5.44,3.61-8.01c-3.22-4.87-5.75-10.29-7.41-15.88c-2.87-0.58-5.72-1.38-8.46-2.38c-2.75-1-5.44-2.22-8.01-3.61
			c-2.43,1.61-5.01,3.05-7.67,4.29c-2.66,1.24-5.42,2.29-8.22,3.11c-0.58,2.86-1.38,5.7-2.38,8.45c-1,2.74-2.21,5.44-3.61,8.01
			c3.22,4.85,5.76,10.3,7.41,15.88c2.86,0.58,5.71,1.38,8.46,2.38c2.75,1,5.44,2.22,8.01,3.61c2.43-1.61,5.01-3.05,7.67-4.29
			C511.32,517.34,514.08,516.29,516.88,515.46z"/>
	</g>
	<g>
		<path class="st0" d="M514.72,479.51c2.53,5.85,6,11.4,10.15,16.24l0.03,0.18c-1.17,2.97-2.13,6.05-2.85,9.17
			c-0.72,3.11-1.21,6.31-1.45,9.49l-0.1,0.15c-2.93,1.27-5.79,2.77-8.5,4.47c-2.72,1.7-5.32,3.61-7.74,5.68l-0.18,0.03
			c-2.96-1.17-6.05-2.13-9.16-2.85c-3.12-0.72-6.31-1.21-9.49-1.45l-0.15-0.1c-2.52-5.84-6-11.41-10.15-16.24l-0.03-0.18
			c1.18-2.98,2.14-6.06,2.86-9.17c0.72-3.12,1.21-6.31,1.45-9.49l0.1-0.15c2.92-1.27,5.78-2.77,8.5-4.47
			c2.72-1.7,5.32-3.61,7.74-5.68l0.18-0.03c2.96,1.17,6.05,2.13,9.16,2.85c3.11,0.72,6.3,1.2,9.49,1.45L514.72,479.51z
			 M520.26,514.45c0.25-3.17,0.74-6.34,1.45-9.44c0.72-3.1,1.67-6.16,2.83-9.12c-4.12-4.82-7.56-10.34-10.09-16.15
			c-3.18-0.25-6.35-0.74-9.44-1.45c-3.1-0.72-6.17-1.67-9.12-2.83c-2.41,2.06-5,3.96-7.7,5.65c-2.7,1.69-5.54,3.18-8.45,4.45
			c-0.25,3.16-0.74,6.33-1.45,9.44c-0.71,3.09-1.67,6.16-2.83,9.12c4.12,4.81,7.57,10.34,10.09,16.15c3.16,0.25,6.34,0.74,9.44,1.45
			c3.1,0.72,6.17,1.67,9.12,2.83c2.41-2.06,5-3.96,7.7-5.65C514.51,517.21,517.35,515.71,520.26,514.45z"/>
	</g>
	<g>
		<path class="st0" d="M513.17,475.94c3.51,5.98,7.98,11.5,13.1,16.18l0.06,0.19c-0.87,3.36-1.5,6.81-1.86,10.27
			c-0.37,3.45-0.47,6.96-0.31,10.43l-0.09,0.17c-2.99,1.75-5.87,3.75-8.58,5.94c-2.7,2.19-5.26,4.6-7.6,7.16l-0.19,0.06
			c-3.35-0.87-6.81-1.5-10.27-1.87c-3.46-0.36-6.97-0.47-10.43-0.31l-0.17-0.09c-3.5-5.97-7.99-11.52-13.1-16.18l-0.06-0.19
			c0.88-3.37,1.51-6.82,1.87-10.27c0.36-3.46,0.46-6.97,0.31-10.43l0.09-0.17c2.99-1.75,5.87-3.75,8.58-5.94
			c2.7-2.19,5.26-4.6,7.6-7.16l0.19-0.06c3.35,0.87,6.81,1.5,10.26,1.87c3.44,0.36,6.95,0.47,10.43,0.31L513.17,475.94z
			 M523.77,512.9c-0.15-3.45-0.04-6.94,0.32-10.37c0.36-3.44,0.98-6.87,1.84-10.21c-5.08-4.66-9.53-10.15-13.03-16.09
			c-3.46,0.15-6.95,0.05-10.37-0.31c-3.44-0.36-6.88-0.99-10.21-1.85c-2.33,2.54-4.87,4.93-7.56,7.11
			c-2.69,2.18-5.56,4.17-8.53,5.92c0.15,3.44,0.04,6.93-0.32,10.37c-0.36,3.43-0.98,6.86-1.85,10.21
			c5.08,4.64,9.54,10.16,13.03,16.09c3.45-0.15,6.94-0.04,10.38,0.32c3.44,0.36,6.87,0.99,10.21,1.85c2.33-2.54,4.87-4.93,7.56-7.11
			C517.93,516.64,520.8,514.65,523.77,512.9z"/>
	</g>
	<g>
		<path class="st0" d="M511.02,472.3c4.58,5.98,10.13,11.35,16.27,15.72l0.08,0.19c-0.5,3.74-0.72,7.55-0.65,11.32
			c0.06,3.77,0.41,7.57,1.04,11.29l-0.08,0.2c-2.99,2.29-5.84,4.83-8.47,7.55c-2.63,2.72-5.07,5.66-7.25,8.73l-0.19,0.08
			c-3.73-0.5-7.54-0.72-11.32-0.65c-3.78,0.07-7.58,0.42-11.3,1.05l-0.2-0.08c-4.56-5.98-10.14-11.37-16.27-15.72l-0.08-0.19
			c0.5-3.75,0.72-7.56,0.66-11.32c-0.07-3.78-0.42-7.58-1.05-11.29l0.08-0.2c2.99-2.29,5.84-4.83,8.47-7.55
			c2.63-2.72,5.07-5.66,7.25-8.73l0.19-0.08c3.73,0.5,7.54,0.72,11.32,0.65c3.76-0.07,7.56-0.42,11.29-1.05L511.02,472.3z
			 M527.35,510.77c-0.62-3.7-0.97-7.48-1.03-11.23c-0.07-3.75,0.15-7.54,0.64-11.26c-6.1-4.35-11.62-9.69-16.19-15.63
			c-3.71,0.62-7.49,0.97-11.23,1.04c-3.76,0.06-7.55-0.15-11.26-0.64c-2.18,3.05-4.6,5.97-7.22,8.67c-2.61,2.71-5.44,5.23-8.42,7.51
			c0.62,3.69,0.96,7.47,1.03,11.23c0.07,3.75-0.15,7.53-0.64,11.26c6.09,4.34,11.64,9.69,16.19,15.63c3.7-0.62,7.48-0.97,11.24-1.03
			c3.76-0.06,7.55,0.15,11.26,0.64c2.17-3.05,4.6-5.97,7.22-8.67C521.55,515.58,524.38,513.05,527.35,510.77z"/>
	</g>
	<g>
		<path class="st0" d="M508.22,468.65c5.73,5.85,12.44,10.9,19.64,14.8l0.12,0.2c-0.04,4.1,0.23,8.24,0.8,12.3
			c0.57,4.06,1.45,8.12,2.62,12.05l-0.06,0.22c-2.92,2.86-5.66,5.98-8.14,9.27c-2.47,3.28-4.72,6.77-6.66,10.37l-0.2,0.12
			c-4.09-0.04-8.23,0.23-12.3,0.8c-4.07,0.57-8.12,1.46-12.05,2.63l-0.22-0.06c-5.71-5.84-12.45-10.92-19.64-14.8l-0.12-0.2
			c0.04-4.11-0.22-8.25-0.79-12.3c-0.58-4.07-1.46-8.12-2.63-12.04l0.06-0.22c2.92-2.86,5.66-5.98,8.14-9.27
			c2.47-3.28,4.72-6.77,6.66-10.37l0.2-0.12c4.09,0.04,8.23-0.23,12.3-0.79c4.05-0.57,8.11-1.45,12.05-2.63L508.22,468.65z
			 M530.94,508c-1.16-3.91-2.03-7.94-2.6-11.98c-0.57-4.04-0.84-8.16-0.8-12.24c-7.16-3.89-13.82-8.91-19.53-14.72
			c-3.92,1.16-7.95,2.04-11.98,2.61c-4.05,0.57-8.16,0.83-12.23,0.8c-1.94,3.58-4.18,7.05-6.64,10.31
			c-2.46,3.27-5.18,6.37-8.08,9.22c1.15,3.9,2.03,7.93,2.6,11.98c0.57,4.03,0.84,8.15,0.8,12.24c7.15,3.87,13.84,8.92,19.53,14.72
			c3.91-1.16,7.94-2.03,11.99-2.6c4.05-0.57,8.16-0.83,12.23-0.8c1.94-3.58,4.17-7.05,6.64-10.31
			C525.31,513.96,528.03,510.85,530.94,508z"/>
	</g>
	<g>
		<path class="st0" d="M504.72,465.09c6.96,5.55,14.86,10.12,23.15,13.37l0.15,0.2c0.5,4.43,1.34,8.86,2.49,13.17
			c1.15,4.31,2.64,8.56,4.43,12.65l-0.03,0.25c-2.78,3.48-5.32,7.2-7.55,11.07c-2.23,3.87-4.19,7.93-5.81,12.08l-0.2,0.15
			c-4.42,0.5-8.85,1.34-13.17,2.49c-4.31,1.16-8.57,2.65-12.65,4.43l-0.25-0.03c-6.94-5.55-14.88-10.13-23.15-13.37l-0.15-0.2
			c-0.5-4.44-1.33-8.87-2.49-13.17c-1.16-4.31-2.65-8.57-4.43-12.65l0.03-0.25c2.78-3.48,5.32-7.2,7.55-11.07
			c2.23-3.87,4.19-7.93,5.81-12.08l0.2-0.15c4.42-0.5,8.85-1.33,13.17-2.49c4.3-1.15,8.55-2.64,12.65-4.43L504.72,465.09z
			 M534.44,504.53c-1.77-4.07-3.25-8.3-4.39-12.58c-1.15-4.29-1.98-8.69-2.49-13.09c-8.24-3.25-16.1-7.78-23.03-13.29
			c-4.08,1.77-8.31,3.25-12.58,4.4c-4.29,1.15-8.7,1.98-13.09,2.48c-1.62,4.12-3.57,8.16-5.79,12.01c-2.22,3.85-4.75,7.56-7.5,11.02
			c1.76,4.06,3.24,8.29,4.39,12.58c1.15,4.28,1.98,8.68,2.48,13.1c8.22,3.23,16.12,7.79,23.03,13.29c4.06-1.77,8.3-3.25,12.59-4.4
			c4.29-1.15,8.7-1.98,13.09-2.48c1.62-4.12,3.57-8.16,5.79-12.01C529.16,511.7,531.68,508,534.44,504.53z"/>
	</g>
	<g>
		<path class="st0" d="M500.47,461.71c8.24,5.07,17.37,8.94,26.75,11.35l0.19,0.19c1.12,4.71,2.62,9.38,4.43,13.88
			c1.81,4.5,3.98,8.89,6.45,13.06l0,0.27c-2.53,4.12-4.78,8.48-6.68,12.95c-1.9,4.47-3.47,9.11-4.67,13.8l-0.19,0.19
			c-4.7,1.12-9.37,2.61-13.87,4.43c-4.5,1.82-8.9,3.99-13.06,6.46l-0.27,0c-8.22-5.07-17.39-8.96-26.74-11.35l-0.19-0.19
			c-1.12-4.72-2.61-9.39-4.43-13.88c-1.82-4.5-3.99-8.89-6.45-13.06l0-0.27c2.53-4.12,4.78-8.47,6.68-12.95
			c1.9-4.47,3.47-9.11,4.67-13.8l0.19-0.19c4.7-1.12,9.37-2.61,13.87-4.43c4.48-1.81,8.88-3.98,13.06-6.46L500.47,461.71z
			 M537.75,500.33c-2.45-4.15-4.6-8.52-6.41-12.99c-1.81-4.47-3.29-9.11-4.42-13.8c-9.32-2.41-18.39-6.26-26.6-11.29
			c-4.16,2.45-8.53,4.61-12.99,6.41c-4.48,1.81-9.12,3.29-13.8,4.41c-1.2,4.66-2.77,9.27-4.66,13.72
			c-1.89,4.45-4.12,8.78-6.63,12.88c2.44,4.14,4.59,8.51,6.41,12.99c1.8,4.46,3.29,9.1,4.41,13.8c9.3,2.4,18.42,6.27,26.6,11.29
			c4.15-2.45,8.52-4.6,13-6.41c4.48-1.8,9.12-3.29,13.8-4.42c1.2-4.66,2.77-9.27,4.66-13.72
			C533.01,508.76,535.24,504.43,537.75,500.33z"/>
	</g>
	<g>
		<path class="st0" d="M495.43,458.63c9.56,4.38,19.93,7.35,30.36,8.71l0.23,0.18c1.84,4.93,4.06,9.77,6.62,14.38
			c2.55,4.61,5.47,9.06,8.69,13.24l0.03,0.29c-2.19,4.78-4.03,9.78-5.49,14.85c-1.46,5.08-2.54,10.29-3.21,15.51l-0.18,0.23
			c-4.93,1.83-9.76,4.06-14.38,6.61c-4.62,2.56-9.07,5.48-13.24,8.69l-0.29,0.03c-9.54-4.38-19.95-7.36-30.36-8.7l-0.23-0.18
			c-1.84-4.95-4.06-9.79-6.61-14.39c-2.56-4.61-5.49-9.07-8.69-13.23l-0.03-0.29c2.19-4.78,4.03-9.78,5.49-14.85
			c1.46-5.08,2.54-10.29,3.21-15.51l0.18-0.23c4.92-1.83,9.76-4.06,14.38-6.61c4.6-2.55,9.05-5.47,13.23-8.7L495.43,458.63z
			 M540.77,495.35c-3.19-4.16-6.09-8.59-8.63-13.17c-2.54-4.58-4.76-9.39-6.6-14.3c-10.37-1.37-20.68-4.32-30.2-8.66
			c-4.17,3.2-8.6,6.1-13.17,8.64c-4.59,2.54-9.4,4.76-14.3,6.59c-0.68,5.18-1.76,10.37-3.21,15.42c-1.45,5.05-3.28,10.02-5.45,14.78
			c3.18,4.15,6.08,8.58,8.63,13.17c2.54,4.57,4.75,9.38,6.59,14.3c10.35,1.35,20.7,4.32,30.2,8.66c4.15-3.19,8.58-6.09,13.17-8.64
			c4.59-2.54,9.4-4.76,14.3-6.59c0.68-5.18,1.76-10.37,3.21-15.42C536.77,505.08,538.6,500.11,540.77,495.35z"/>
	</g>
	<g>
		<path class="st0" d="M489.59,455.98c10.9,3.45,22.47,5.29,33.91,5.37l0.27,0.17c2.64,5.08,5.68,10.01,9.05,14.64
			c3.36,4.64,7.11,9.05,11.13,13.13l0.08,0.31c-1.73,5.45-3.06,11.08-3.96,16.75c-0.9,5.67-1.37,11.44-1.41,17.15l-0.17,0.27
			c-5.07,2.63-10,5.67-14.64,9.04c-4.64,3.37-9.06,7.12-13.13,11.13l-0.31,0.07c-10.87-3.46-22.5-5.3-33.9-5.37l-0.27-0.17
			c-2.64-5.09-5.68-10.02-9.04-14.65c-3.38-4.64-7.12-9.05-11.13-13.12l-0.07-0.31c1.73-5.45,3.06-11.08,3.96-16.75
			c0.9-5.67,1.37-11.44,1.41-17.15l0.17-0.27c5.07-2.63,9.99-5.67,14.64-9.04c4.62-3.36,9.04-7.1,13.12-11.13L489.59,455.98z
			 M543.37,489.58c-3.99-4.06-7.71-8.46-11.06-13.07c-3.35-4.61-6.38-9.51-9.01-14.55c-11.37-0.1-22.88-1.92-33.72-5.34
			c-4.07,4-8.46,7.72-13.06,11.06c-4.62,3.35-9.51,6.38-14.55,9c-0.05,5.68-0.53,11.42-1.42,17.06c-0.89,5.64-2.21,11.24-3.92,16.66
			c3.98,4.05,7.7,8.45,11.06,13.06c3.34,4.6,6.37,9.5,9,14.56c11.35,0.09,22.9,1.92,33.72,5.34c4.06-3.99,8.45-7.71,13.07-11.06
			c4.62-3.35,9.51-6.38,14.55-9c0.05-5.68,0.53-11.42,1.42-17.06C540.34,500.61,541.66,495.01,543.37,489.58z"/>
	</g>
	<g>
		<path class="st0" d="M482.94,453.88c12.21,2.28,24.95,2.73,37.29,1.3l0.32,0.14c3.52,5.13,7.45,10.04,11.7,14.6
			c4.24,4.56,8.87,8.82,13.74,12.69l0.12,0.33c-1.14,6.1-1.83,12.36-2.05,18.6c-0.22,6.24,0.03,12.52,0.75,18.69l-0.14,0.32
			c-5.12,3.51-10.03,7.45-14.6,11.69c-4.56,4.25-8.83,8.88-12.69,13.75l-0.33,0.12c-12.19-2.29-24.97-2.74-37.29-1.3l-0.32-0.14
			c-3.52-5.15-7.46-10.06-11.69-14.6c-4.26-4.56-8.88-8.82-13.74-12.68l-0.12-0.33c1.14-6.1,1.83-12.36,2.05-18.6
			c0.22-6.23-0.03-12.52-0.75-18.69l0.14-0.32c5.12-3.51,10.03-7.44,14.6-11.69c4.54-4.24,8.81-8.86,12.68-13.75L482.94,453.88z
			 M545.41,483.02c-4.85-3.85-9.44-8.1-13.66-12.63c-4.22-4.53-8.14-9.41-11.65-14.51c-12.28,1.4-24.94,0.96-37.09-1.3
			c-3.86,4.86-8.11,9.45-12.63,13.67c-4.54,4.23-9.42,8.14-14.51,11.64c0.7,6.14,0.94,12.39,0.73,18.59
			c-0.22,6.2-0.9,12.42-2.02,18.5c4.83,3.85,9.43,8.09,13.66,12.63c4.21,4.52,8.13,9.4,11.64,14.51c12.25-1.41,24.96-0.96,37.09,1.3
			c3.85-4.84,8.1-9.44,12.63-13.67c4.54-4.22,9.42-8.14,14.51-11.64c-0.7-6.14-0.94-12.39-0.73-18.59
			C543.61,495.31,544.29,489.09,545.41,483.02z"/>
	</g>
	<g>
		<path class="st0" d="M475.49,452.51c13.48,0.84,27.27-0.36,40.4-3.53l0.36,0.11c4.47,5.07,9.37,9.85,14.56,14.2
			c5.18,4.35,10.73,8.35,16.51,11.87l0.18,0.34c-0.42,6.74-0.34,13.58,0.25,20.33c0.59,6.76,1.7,13.51,3.28,20.07l-0.11,0.36
			c-5.06,4.47-9.84,9.36-14.2,14.55c-4.36,5.19-8.35,10.75-11.87,16.52l-0.34,0.17c-13.45-0.86-27.31,0.35-40.4,3.53l-0.36-0.11
			c-4.48-5.09-9.38-9.86-14.55-14.2c-5.2-4.35-10.75-8.34-16.51-11.86l-0.17-0.34c0.42-6.74,0.34-13.58-0.25-20.33
			c-0.59-6.75-1.69-13.51-3.28-20.07l0.11-0.36c5.06-4.46,9.84-9.36,14.2-14.55c4.34-5.17,8.33-10.73,11.86-16.52L475.49,452.51z
			 M546.74,475.66c-5.74-3.51-11.26-7.49-16.41-11.82c-5.16-4.33-10.03-9.07-14.49-14.11c-13.06,3.14-26.78,4.34-40.19,3.52
			c-3.52,5.75-7.5,11.27-11.81,16.42c-4.34,5.16-9.08,10.03-14.11,14.48c1.57,6.53,2.66,13.24,3.25,19.96
			c0.59,6.72,0.68,13.52,0.27,20.22c5.72,3.51,11.24,7.48,16.41,11.81c5.14,4.32,10.02,9.06,14.48,14.12
			c13.03-3.14,26.8-4.35,40.19-3.52c3.51-5.73,7.49-11.25,11.82-16.42c4.34-5.16,9.08-10.03,14.11-14.48
			c-1.57-6.53-2.66-13.24-3.25-19.96C546.42,489.17,546.33,482.37,546.74,475.66z"/>
	</g>
	<g>
		<path class="st0" d="M467.26,452.01c14.66-0.87,29.38-4,43.12-9.17l0.4,0.07c5.5,4.88,11.41,9.38,17.58,13.39
			c6.17,4.01,12.69,7.58,19.38,10.62l0.23,0.34c0.44,7.32,1.43,14.69,2.97,21.9c1.53,7.21,3.62,14.35,6.2,21.22l-0.08,0.4
			c-4.87,5.49-9.37,11.4-13.39,17.58c-4.01,6.18-7.58,12.7-10.62,19.39l-0.34,0.23c-14.62,0.86-29.41,4-43.12,9.17l-0.4-0.07
			c-5.51-4.89-11.42-9.4-17.58-13.4c-6.18-4.01-12.7-7.58-19.38-10.61l-0.23-0.34c-0.44-7.32-1.43-14.69-2.97-21.9
			c-1.53-7.21-3.62-14.35-6.2-21.22l0.07-0.4c4.87-5.49,9.37-11.4,13.39-17.58c4-6.15,7.56-12.68,10.61-19.39L467.26,452.01z
			 M547.21,467.55c-6.66-3.03-13.14-6.59-19.27-10.58c-6.14-3.99-12.02-8.46-17.5-13.3c-13.68,5.11-28.31,8.22-42.89,9.12
			c-3.04,6.67-6.59,13.16-10.57,19.28c-4,6.14-8.47,12.03-13.3,17.49c2.56,6.84,4.62,13.94,6.15,21.11
			c1.52,7.17,2.52,14.5,2.97,21.78c6.64,3.03,13.12,6.58,19.27,10.57c6.12,3.98,12.01,8.45,17.49,13.31
			c13.65-5.12,28.34-8.24,42.89-9.12c3.03-6.65,6.58-13.13,10.57-19.28c3.99-6.14,8.47-12.02,13.3-17.49
			c-2.56-6.84-4.62-13.94-6.15-21.11C548.65,482.17,547.65,474.84,547.21,467.55z"/>
	</g>
	<g>
		<path class="st0" d="M458.32,452.56c15.69-2.88,31.16-8.21,45.31-15.6l0.45,0.03c6.58,4.53,13.56,8.61,20.74,12.11
			c7.18,3.51,14.69,6.5,22.32,8.89l0.3,0.34c1.44,7.84,3.49,15.66,6.1,23.24c2.61,7.58,5.8,15,9.5,22.07l-0.03,0.45
			c-4.53,6.57-8.6,13.54-12.12,20.74c-3.51,7.2-6.5,14.71-8.89,22.33l-0.34,0.3c-15.66,2.86-31.2,8.21-45.31,15.6l-0.45-0.03
			c-6.59-4.55-13.57-8.63-20.74-12.13c-7.2-3.5-14.71-6.49-22.32-8.88l-0.3-0.34c-1.44-7.84-3.49-15.66-6.1-23.24
			c-2.61-7.57-5.8-15-9.5-22.07l0.03-0.45c4.52-6.56,8.6-13.54,12.12-20.74c3.5-7.17,6.48-14.68,8.88-22.32L458.32,452.56z
			 M546.63,458.74c-7.58-2.39-15.05-5.37-22.19-8.86c-7.15-3.49-14.09-7.53-20.64-12.03c-14.08,7.33-29.46,12.62-45.06,15.52
			c-2.39,7.6-5.37,15.07-8.85,22.2c-3.5,7.16-7.55,14.1-12.04,20.63c3.66,7.04,6.84,14.42,9.43,21.96
			c2.59,7.53,4.64,15.31,6.09,23.11c7.56,2.39,15.03,5.36,22.19,8.85c7.13,3.48,14.07,7.53,20.64,12.04
			c14.04-7.33,29.49-12.65,45.06-15.52c2.39-7.57,5.36-15.04,8.86-22.2c3.5-7.15,7.54-14.09,12.04-20.63
			c-3.66-7.04-6.83-14.42-9.43-21.96C550.12,474.31,548.08,466.54,546.63,458.74z"/>
	</g>
	<g>
		<path class="st0" d="M448.75,454.34c16.55-5.19,32.53-12.99,46.81-22.83l0.48-0.03c7.7,4.02,15.77,7.49,23.99,10.32
			c8.21,2.83,16.71,5.07,25.26,6.63l0.36,0.32c2.59,8.27,5.84,16.44,9.66,24.26c3.82,7.83,8.25,15.41,13.17,22.55l0.03,0.49
			c-4.01,7.68-7.49,15.75-10.33,23.98c-2.83,8.23-5.06,16.73-6.63,25.26l-0.32,0.36c-16.52,5.16-32.57,12.99-46.81,22.83l-0.49,0.03
			c-7.71-4.03-15.78-7.51-23.98-10.33c-8.23-2.83-16.73-5.06-25.25-6.62l-0.36-0.32c-2.59-8.27-5.84-16.43-9.66-24.26
			c-3.82-7.83-8.25-15.41-13.17-22.55l-0.03-0.49c4.01-7.68,7.49-15.75,10.33-23.98c2.82-8.2,5.05-16.69,6.62-25.26L448.75,454.34z
			 M544.84,449.31c-8.5-1.57-16.95-3.8-25.11-6.62c-8.17-2.81-16.2-6.26-23.86-10.25c-14.22,9.77-30.11,17.52-46.56,22.71
			c-1.58,8.52-3.8,16.97-6.6,25.12c-2.83,8.18-6.27,16.21-10.25,23.86c4.88,7.11,9.28,14.66,13.08,22.44
			c3.8,7.78,7.04,15.9,9.63,24.12c8.48,1.58,16.92,3.8,25.11,6.61c8.15,2.81,16.18,6.26,23.86,10.26
			c14.18-9.77,30.14-17.55,46.56-22.71c1.57-8.49,3.79-16.94,6.61-25.12c2.82-8.18,6.27-16.21,10.25-23.86
			c-4.88-7.11-9.28-14.65-13.08-22.44C550.67,465.65,547.44,457.53,544.84,449.31z"/>
	</g>
	<g>
		<path class="st0" d="M438.66,457.53c17.17-7.79,33.38-18.32,47.48-30.83l0.52-0.1c8.84,3.32,18,5.99,27.24,7.96
			c9.24,1.97,18.7,3.25,28.13,3.81l0.44,0.3c3.89,8.58,8.48,16.96,13.64,24.9c5.16,7.94,10.94,15.54,17.2,22.58l0.1,0.52
			c-3.31,8.82-5.99,17.99-7.96,27.24c-1.97,9.25-3.25,18.72-3.8,28.13l-0.3,0.44c-17.14,7.76-33.42,18.33-47.48,30.83l-0.52,0.1
			c-8.86-3.33-18.02-6.01-27.24-7.97c-9.26-1.96-18.72-3.24-28.12-3.8l-0.44-0.3c-3.89-8.58-8.48-16.96-13.64-24.9
			c-5.15-7.94-10.94-15.54-17.2-22.58l-0.1-0.52c3.31-8.82,5.99-17.98,7.97-27.24c1.96-9.22,3.24-18.68,3.8-28.13L438.66,457.53z
			 M541.66,439.37c-9.38-0.57-18.78-1.85-27.97-3.81c-9.19-1.95-18.31-4.61-27.1-7.89c-14.05,12.43-30.16,22.89-47.22,30.67
			c-0.57,9.4-1.85,18.81-3.8,27.97c-1.96,9.2-4.62,18.32-7.9,27.09c6.21,7.02,11.96,14.58,17.08,22.48
			c5.13,7.9,9.7,16.22,13.58,24.75c9.35,0.58,18.76,1.86,27.96,3.8c9.17,1.95,18.29,4.61,27.1,7.91
			c14-12.41,30.19-22.92,47.23-30.67c0.57-9.36,1.85-18.78,3.81-27.98c1.96-9.2,4.62-18.31,7.9-27.09
			c-6.21-7.02-11.96-14.58-17.08-22.48C550.12,456.23,545.55,447.9,541.66,439.37z"/>
	</g>
	<g>
		<path class="st0" d="M428.2,462.31c17.49-10.68,33.58-24.19,47.14-39.55l0.55-0.17c9.97,2.41,20.22,4.08,30.45,4.98
			c10.23,0.9,20.61,1.03,30.85,0.38l0.51,0.27c5.34,8.74,11.4,17.17,18.01,25.05c6.61,7.88,13.86,15.31,21.54,22.09l0.17,0.55
			c-2.4,9.96-4.08,20.2-4.99,30.44c-0.9,10.24-1.02,20.63-0.38,30.86l-0.27,0.51c-17.46,10.64-33.63,24.2-47.14,39.55l-0.55,0.17
			c-10-2.42-20.24-4.1-30.44-4.99c-10.25-0.89-20.62-1.01-30.84-0.38l-0.51-0.27c-5.34-8.74-11.4-17.17-18.01-25.05
			c-6.61-7.88-13.86-15.31-21.54-22.09l-0.17-0.55c2.4-9.95,4.08-20.19,4.99-30.44c0.89-10.2,1.02-20.58,0.37-30.85L428.2,462.31z
			 M536.92,429.07c-10.19,0.63-20.51,0.49-30.68-0.41c-10.17-0.89-20.36-2.55-30.28-4.93c-13.51,15.27-29.51,28.69-46.89,39.34
			c0.63,10.21,0.5,20.54-0.39,30.68c-0.9,10.19-2.56,20.37-4.93,30.28c7.63,6.75,14.83,14.15,21.41,21.98
			c6.58,7.84,12.61,16.22,17.93,24.9c10.17-0.62,20.48-0.48,30.67,0.4c10.15,0.89,20.34,2.55,30.28,4.94
			c13.46-15.25,29.53-28.73,46.89-39.34c-0.63-10.18-0.49-20.5,0.4-30.69c0.9-10.19,2.56-20.37,4.93-30.28
			c-7.63-6.75-14.83-14.15-21.41-21.98C548.27,446.14,542.24,437.76,536.92,429.07z"/>
	</g>
	<g>
		<path class="st0" d="M417.55,468.85c17.45-13.84,33.03-30.54,45.62-48.92l0.57-0.26c11.08,1.28,22.35,1.73,33.51,1.34
			c11.15-0.38,22.37-1.62,33.33-3.67l0.59,0.22c6.92,8.72,14.57,17.02,22.75,24.64c8.18,7.63,16.98,14.68,26.17,20.97l0.26,0.57
			c-1.27,11.06-1.73,22.33-1.35,33.5c0.39,11.17,1.63,22.39,3.68,33.34l-0.22,0.58c-17.43,13.79-33.07,30.57-45.62,48.92l-0.57,0.26
			c-11.1-1.29-22.38-1.74-33.51-1.35c-11.17,0.4-22.38,1.64-33.32,3.68l-0.59-0.22c-6.92-8.72-14.57-17.01-22.75-24.64
			c-8.18-7.63-16.98-14.68-26.17-20.97l-0.26-0.57c1.27-11.05,1.73-22.33,1.35-33.5c-0.39-11.12-1.63-22.34-3.69-33.33
			L417.55,468.85z M530.43,418.59c-10.91,2.03-22.06,3.25-33.15,3.63c-11.09,0.39-22.3-0.05-33.33-1.3
			c-12.55,18.26-28.03,34.86-45.37,48.66c2.03,10.94,3.26,22.09,3.64,33.15c0.38,11.11-0.06,22.32-1.31,33.32
			c9.13,6.27,17.88,13.3,26.01,20.88c8.13,7.59,15.75,15.82,22.65,24.49c10.89-2.01,22.04-3.24,33.15-3.63
			c11.07-0.39,22.28,0.06,33.33,1.32c12.51-18.23,28.05-34.91,45.37-48.66c-2.02-10.9-3.25-22.05-3.63-33.16
			c-0.38-11.11,0.06-22.32,1.31-33.32c-9.13-6.27-17.88-13.3-26.01-20.88C544.95,435.49,537.33,427.26,530.43,418.59z"/>
	</g>
	<g>
		<path class="st0" d="M406.92,477.31c17-17.24,31.59-37.33,42.73-58.82l0.58-0.35c12.12-0.09,24.34-1.1,36.33-3
			c11.98-1.89,23.92-4.71,35.47-8.38l0.66,0.16c8.62,8.5,17.97,16.43,27.81,23.57c9.83,7.15,20.27,13.59,31.01,19.16l0.35,0.58
			c0.09,12.1,1.1,24.32,2.99,36.32c1.9,12,4.72,23.94,8.39,35.48l-0.16,0.66c-16.98,17.19-31.63,37.36-42.73,58.82l-0.58,0.36
			c-12.15,0.08-24.37,1.08-36.33,2.98c-12,1.91-23.93,4.73-35.46,8.38l-0.66-0.16c-8.62-8.5-17.97-16.43-27.81-23.57
			c-9.83-7.14-20.27-13.59-31.01-19.16l-0.35-0.58c-0.09-12.1-1.09-24.31-2.98-36.32c-1.89-11.95-4.72-23.88-8.39-35.47
			L406.92,477.31z M522.05,408.14c-11.5,3.63-23.37,6.42-35.29,8.3c-11.92,1.89-24.07,2.9-36.13,3.01
			c-11.12,21.36-25.63,41.32-42.5,58.5c3.64,11.53,6.44,23.4,8.32,35.29c1.88,11.94,2.89,24.09,3,36.12
			c10.68,5.56,21.05,11.98,30.83,19.08c9.78,7.11,19.09,14.98,27.68,23.42c11.48-3.61,23.35-6.41,35.28-8.31
			c11.89-1.88,24.04-2.89,36.13-2.99c11.08-21.33,25.64-41.38,42.5-58.5c-3.63-11.49-6.42-23.36-8.31-35.3
			c-1.88-11.93-2.89-24.08-3-36.12c-10.68-5.56-21.05-11.98-30.83-19.08C539.94,424.45,530.63,416.58,522.05,408.14z"/>
	</g>
	<g>
		<path class="st0" d="M396.57,487.85c16.05-20.85,29.13-44.45,38.31-69.12l0.58-0.46c13.06-1.7,26.12-4.41,38.79-8.04
			c12.68-3.62,25.18-8.25,37.16-13.74l0.73,0.08c10.42,8.02,21.57,15.34,33.12,21.75c11.56,6.41,23.67,11.98,35.99,16.57l0.46,0.58
			c1.7,13.04,4.4,26.09,8.03,38.79c3.64,12.69,8.27,25.2,13.75,37.17l-0.08,0.73c-16.04,20.79-29.18,44.5-38.31,69.12l-0.58,0.46
			c-13.1,1.7-26.15,4.4-38.8,8.02c-12.69,3.65-25.19,8.27-37.15,13.74l-0.73-0.08c-10.42-8.02-21.57-15.34-33.12-21.75
			c-11.56-6.41-23.67-11.98-35.99-16.57l-0.46-0.58c-1.7-13.04-4.4-26.09-8.03-38.79c-3.63-12.64-8.25-25.14-13.76-37.16
			L396.57,487.85z M511.62,397.97c-11.93,5.44-24.37,10.03-36.97,13.63c-12.61,3.61-25.58,6.32-38.58,8.03
			c-9.17,24.52-22.17,47.98-38.11,68.75c5.45,11.96,10.05,24.39,13.65,36.97c3.61,12.63,6.31,25.6,8.02,38.57
			c12.26,4.58,24.29,10.13,35.79,16.5c11.49,6.37,22.58,13.64,32.96,21.6c11.91-5.42,24.34-10.01,36.96-13.64
			c12.58-3.61,25.56-6.3,38.58-8.01c9.12-24.48,22.18-48.04,38.11-68.75c-5.43-11.91-10.02-24.35-13.64-36.98
			c-3.61-12.62-6.31-25.6-8.02-38.57c-12.25-4.58-24.29-10.13-35.79-16.5C533.09,413.21,522,405.94,511.62,397.97z"/>
	</g>
	<g>
		<path class="st0" d="M386.81,500.6c14.56-24.63,25.54-51.82,32.18-79.64l0.56-0.57c13.87-3.57,27.59-8.22,40.79-13.82
			c13.2-5.59,26.07-12.23,38.27-19.74l0.8-0.01c12.31,7.28,25.3,13.69,38.61,19.07c13.32,5.38,27.12,9.79,41.03,13.1l0.57,0.56
			c3.56,13.85,8.21,27.57,13.8,40.78c5.61,13.21,12.26,26.09,19.76,38.28l0.01,0.8c-14.55,24.56-25.59,51.87-32.18,79.64l-0.56,0.57
			c-13.91,3.57-27.63,8.21-40.8,13.8c-13.21,5.62-26.08,12.26-38.26,19.75l-0.8,0.01c-12.31-7.28-25.3-13.69-38.61-19.07
			c-13.32-5.38-27.12-9.79-41.03-13.1l-0.57-0.56c-3.56-13.84-8.2-27.56-13.8-40.78c-5.59-13.16-12.23-26.03-19.76-38.26
			L386.81,500.6z M499.02,388.39c-12.15,7.45-24.96,14.04-38.08,19.6c-13.12,5.57-26.77,10.2-40.55,13.77
			c-6.64,27.67-17.56,54.7-32,79.21c7.47,12.18,14.07,24.99,19.62,38.07c5.57,13.15,10.2,26.79,13.76,40.55
			c13.83,3.32,27.55,7.72,40.79,13.07c13.24,5.35,26.17,11.72,38.42,18.94c12.13-7.42,24.93-14.02,38.07-19.61
			c13.09-5.56,26.74-10.18,40.56-13.76c6.6-27.62,17.57-54.76,32.01-79.22c-7.44-12.13-14.04-24.95-19.62-38.09
			c-5.57-13.14-10.2-26.78-13.76-40.55c-13.83-3.32-27.55-7.71-40.79-13.07C524.2,401.98,511.27,395.61,499.02,388.39z"/>
	</g>
	<g>
		<path class="st0" d="M377.96,515.64c12.44-28.5,20.69-59.29,24.17-90.19l0.53-0.69c14.49-5.69,28.68-12.52,42.17-20.31
			c13.5-7.78,26.51-16.65,38.67-26.37l0.86-0.11c14.24,6.22,29.11,11.42,44.19,15.46c15.08,4.04,30.56,6.97,46,8.7l0.69,0.53
			c5.68,14.47,12.51,28.65,20.29,42.17c7.8,13.51,16.68,26.52,26.38,38.68l0.11,0.86c-12.44,28.42-20.73,59.35-24.16,90.18
			l-0.53,0.69c-14.53,5.69-28.72,12.52-42.18,20.29c-13.51,7.81-26.51,16.69-38.66,26.37l-0.86,0.11
			c-14.24-6.22-29.11-11.42-44.19-15.46c-15.08-4.04-30.55-6.97-46-8.7l-0.69-0.53c-5.67-14.46-12.5-28.65-20.29-42.17
			c-7.77-13.46-16.65-26.46-26.39-38.66L377.96,515.64z M484.16,379.72c-12.12,9.65-25.07,18.46-38.49,26.19
			c-13.42,7.75-27.52,14.55-41.93,20.23c-3.5,30.73-11.7,61.34-24.04,89.7c9.67,12.15,18.49,25.09,26.21,38.47
			c7.75,13.45,14.55,27.55,20.22,41.92c15.36,1.75,30.75,4.67,45.74,8.69c15,4.02,29.78,9.18,43.96,15.34
			c12.1-9.61,25.04-18.43,38.47-26.2c13.39-7.73,27.5-14.53,41.94-20.21c3.46-30.67,11.7-61.41,24.04-89.7
			c-9.64-12.11-18.45-25.05-26.21-38.49c-7.75-13.44-14.55-27.54-20.22-41.92c-15.36-1.75-30.74-4.67-45.74-8.69
			C513.12,391.04,498.33,385.88,484.16,379.72z"/>
	</g>
	<g>
		<path class="st0" d="M370.41,533.04c9.65-32.39,14.47-66.7,14.12-100.5l0.48-0.82c14.88-8.05,29.28-17.31,42.81-27.5
			c13.53-10.18,26.39-21.47,38.23-33.57l0.92-0.24c16.19,4.82,32.92,8.47,49.72,10.83c16.8,2.36,33.89,3.47,50.78,3.29l0.82,0.48
			c8.04,14.85,17.29,29.26,27.48,42.81c10.21,13.54,21.51,26.41,33.59,38.23l0.24,0.92c-9.66,32.31-14.51,66.78-14.12,100.5
			l-0.48,0.82c-14.92,8.06-29.33,17.31-42.82,27.48c-13.54,10.22-26.39,21.51-38.22,33.57l-0.92,0.24
			c-16.19-4.82-32.91-8.47-49.72-10.83c-16.8-2.36-33.89-3.47-50.78-3.29l-0.82-0.48c-8.04-14.85-17.28-29.25-27.48-42.81
			c-10.16-13.49-21.46-26.35-33.59-38.22L370.41,533.04z M466.98,372.33c-11.8,12.01-24.6,23.23-38.05,33.36
			c-13.45,10.14-27.77,19.35-42.55,27.38c0.29,33.62-4.5,67.72-14.05,99.96c12.04,11.83,23.27,24.62,33.38,38.04
			c10.14,13.48,19.35,27.79,27.37,42.55c16.8-0.15,33.79,0.97,50.5,3.32c16.71,2.35,33.35,5.96,49.46,10.73
			c11.78-11.98,24.57-23.2,38.04-33.36c13.42-10.11,27.74-19.32,42.57-27.36c-0.33-33.55,4.49-67.8,14.05-99.96
			c-12-11.78-23.23-24.58-33.37-38.05c-10.14-13.47-19.34-27.79-27.37-42.55c-16.8,0.15-33.79-0.97-50.5-3.32
			C499.72,380.71,483.09,377.1,466.98,372.33z"/>
	</g>
	<g>
		<path class="st0" d="M364.57,552.81c6.12-36.22,6.77-73.88,1.93-110.29l0.41-0.94c14.99-10.66,29.3-22.55,42.54-35.34
			c13.25-12.77,25.63-26.66,36.8-41.28l0.96-0.38c18.1,3.06,36.63,4.77,55.07,5.1c18.44,0.32,37.02-0.74,55.22-3.17l0.94,0.41
			c10.64,14.96,22.53,29.27,35.32,42.54c12.8,13.26,26.7,25.64,41.3,36.8l0.38,0.96c-6.14,36.14-6.8,73.96-1.93,110.29l-0.41,0.94
			c-15.03,10.68-29.35,22.56-42.56,35.32c-13.25,12.82-25.63,26.71-36.78,41.28l-0.96,0.38c-18.1-3.06-36.63-4.77-55.07-5.1
			c-18.44-0.32-37.02,0.74-55.22,3.17l-0.94-0.41c-10.64-14.95-22.52-29.27-35.32-42.54c-12.75-13.2-26.65-25.58-41.3-36.78
			L364.57,552.81z M447.46,366.64c-11.14,14.52-23.46,28.33-36.63,41.03c-13.17,12.72-27.39,24.55-42.28,35.18
			c4.77,36.23,4.11,73.66-1.91,109.7c14.56,11.16,28.37,23.48,41.05,36.61c12.73,13.2,24.55,27.42,35.16,42.28
			c18.11-2.38,36.58-3.43,54.92-3.11c18.34,0.32,36.77,2.01,54.78,5.02c11.12-14.48,23.44-28.28,36.62-41.03
			c13.14-12.69,27.37-24.52,42.3-35.16c-4.8-36.15-4.14-73.74,1.91-109.7c-14.51-11.12-28.31-23.45-41.05-36.63
			c-12.72-13.19-24.55-27.42-35.16-42.28c-18.11,2.38-36.58,3.43-54.92,3.11C483.9,371.34,465.47,369.65,447.46,366.64z"/>
	</g>
	<g>
		<path class="st0" d="M360.88,574.91c1.8-39.89-2.48-80.6-12.53-119.25l0.32-1.07c14.76-13.49,28.62-28.21,41.21-43.76
			c12.6-15.54,24.12-32.16,34.23-49.41l0.98-0.54c19.94,0.9,40.16,0.3,60.09-1.8c19.94-2.1,39.84-5.71,59.15-10.74l1.07,0.32
			c13.46,14.73,28.18,28.6,43.74,41.22c15.57,12.61,32.2,24.13,49.43,34.23l0.53,0.98c-1.84,39.8,2.46,80.7,12.53,119.24l-0.32,1.07
			c-14.8,13.51-28.67,28.23-41.24,43.74c-12.6,15.58-24.11,32.21-34.21,49.41l-0.98,0.53c-19.93-0.9-40.15-0.3-60.09,1.8
			c-19.94,2.1-39.84,5.71-59.15,10.74l-1.07-0.32c-13.46-14.73-28.17-28.59-43.74-41.22c-15.51-12.56-32.14-24.07-49.43-34.21
			L360.88,574.91z M425.65,363.08c-10.09,17.14-21.56,33.67-34.09,49.12c-12.52,15.46-26.3,30.11-40.96,43.55
			c9.94,38.46,14.2,78.92,12.47,118.6c17.18,10.12,33.71,21.57,49.13,34.06c15.48,12.56,30.12,26.33,43.53,40.96
			c19.22-4.97,39.01-8.55,58.84-10.63c19.83-2.08,39.93-2.7,59.76-1.84c10.08-17.1,21.54-33.62,34.07-49.11
			c12.49-15.43,26.28-30.07,40.98-43.54c-9.96-38.36-14.23-79.01-12.47-118.61c-17.12-10.08-33.65-21.54-49.14-34.09
			c-15.47-12.55-30.12-26.33-43.54-40.96c-19.22,4.97-39.01,8.55-58.84,10.63C465.59,363.33,445.48,363.95,425.65,363.08z"/>
	</g>
	<g>
		<path class="st0" d="M359.84,599.25c-3.34-43.27-13.35-86.63-29.32-126.99l0.2-1.2c14.13-16.5,27.14-34.22,38.67-52.67
			c11.54-18.43,21.76-37.89,30.39-57.84l0.99-0.71c21.63-1.67,43.36-5,64.59-9.9c21.23-4.9,42.23-11.43,62.39-19.42l1.2,0.2
			c16.48,14.11,34.19,27.12,52.65,38.68c18.47,11.54,37.94,21.76,57.87,30.38l0.71,0.99c3.29,43.18,13.34,86.73,29.32,126.99
			l-0.2,1.2c-14.18,16.54-27.2,34.25-38.7,52.65c-11.53,18.48-21.74,37.94-30.37,57.84l-0.99,0.71c-21.63,1.67-43.36,5-64.59,9.9
			c-21.23,4.9-42.22,11.43-62.39,19.42l-1.2-0.2c-16.47-14.1-34.18-27.12-52.65-38.68c-18.39-11.49-37.86-21.71-57.86-30.36
			L359.84,599.25z M401.65,362.14c-8.62,19.83-18.8,39.18-30.27,57.51c-11.46,18.34-24.39,35.97-38.42,52.41
			c15.82,40.17,25.77,83.27,29.16,126.31c19.88,8.64,39.23,18.81,57.52,30.24c18.36,11.5,35.99,24.42,52.39,38.42
			c20.08-7.91,40.96-14.39,62.07-19.26c21.12-4.88,42.72-8.2,64.23-9.9c8.61-19.78,18.78-39.12,30.25-57.5
			c11.44-18.3,24.37-35.93,38.44-52.4c-15.83-40.07-25.82-83.35-29.16-126.31c-19.81-8.61-39.16-18.79-57.53-30.26
			c-18.36-11.49-35.98-24.41-52.39-38.42c-20.07,7.91-40.95,14.39-62.07,19.26C444.77,357.11,423.16,360.44,401.65,362.14z"/>
	</g>
	<g>
		<path class="st0" d="M361.93,625.64c-9.34-46.24-25.88-91.69-48.45-133.12l0.06-1.32c13.06-19.68,24.75-40.52,34.74-61.94
			c10-21.41,18.45-43.76,25.12-66.43l0.97-0.89c23.11-4.66,46.12-11.14,68.37-19.24c22.26-8.1,44.04-17.93,64.74-29.21l1.32,0.06
			c19.65,13.04,40.48,24.73,61.92,34.75c21.45,10,43.81,18.45,66.45,25.11l0.89,0.98c9.27,46.15,25.88,91.81,48.45,133.12
			l-0.06,1.32c-13.11,19.72-24.8,40.55-34.77,61.93c-9.99,21.46-18.43,43.81-25.1,66.42l-0.98,0.89
			c-23.11,4.66-46.12,11.13-68.37,19.24c-22.26,8.1-44.04,17.93-64.74,29.21l-1.32-0.06c-19.64-13.03-40.47-24.73-61.92-34.75
			c-21.37-9.96-43.72-18.4-66.44-25.09L361.93,625.64z M375.63,364.29c-6.67,22.54-15.09,44.76-25.04,66.05
			c-9.94,21.31-21.54,42.04-34.5,61.63c22.39,41.24,38.83,86.42,48.19,132.4c22.59,6.69,44.81,15.1,66.06,25.01
			c21.33,9.97,42.06,21.58,61.61,34.51c20.61-11.19,42.28-20.95,64.41-29c22.14-8.06,45.01-14.51,67.99-19.19
			c6.67-22.48,15.08-44.69,25.02-66.04c9.91-21.26,21.53-41.99,34.53-61.62c-22.39-41.13-38.9-86.51-48.19-132.4
			c-22.51-6.66-44.74-15.08-66.07-25.03c-21.32-9.96-42.05-21.57-61.61-34.51c-20.61,11.19-42.28,20.95-64.41,29
			C421.49,353.16,398.62,359.62,375.63,364.29z"/>
	</g>
	<g>
		<path class="st0" d="M367.69,653.84c-16.2-48.65-40.06-95.49-69.91-137.2l-0.11-1.43c11.48-22.96,21.33-46.99,29.27-71.43
			c7.96-24.43,14.11-49.66,18.3-75l0.93-1.09c24.32-8.09,48.28-18.12,71.22-29.81c22.94-11.69,45.14-25.18,65.98-40.09l1.43-0.11
			c22.92,11.46,46.95,21.32,71.41,29.29c24.47,7.95,49.71,14.1,75.02,18.29l1.09,0.93c16.11,48.56,40.08,95.62,69.9,137.19
			l0.11,1.43c-11.53,23.01-21.39,47.04-29.31,71.42c-7.93,24.48-14.08,49.71-18.28,74.99l-0.93,1.09
			c-24.32,8.09-48.28,18.12-71.22,29.81c-22.94,11.69-45.14,25.18-65.98,40.09l-1.43,0.11c-22.91-11.46-46.94-21.31-71.41-29.29
			c-24.37-7.92-49.61-14.06-75.01-18.26L367.69,653.84z M347.85,370.07c-4.21,25.2-10.35,50.28-18.26,74.58
			c-7.9,24.3-17.67,48.21-29.06,71.07c29.62,41.53,53.34,88.09,69.53,136.46c25.26,4.22,50.35,10.35,74.59,18.23
			c24.34,7.93,48.23,17.71,71.04,29.07c20.75-14.8,42.84-28.2,65.65-39.82c22.81-11.62,46.63-21.62,70.81-29.71
			c4.22-25.14,10.35-50.22,18.24-74.56c7.88-24.25,17.66-48.15,29.09-71.05c-29.6-41.41-53.43-88.17-69.53-136.46
			c-25.17-4.2-50.26-10.34-74.6-18.25c-24.33-7.93-48.23-17.7-71.04-29.07c-20.75,14.8-42.84,28.2-65.65,39.82
			C395.85,351.98,372.03,361.98,347.85,370.07z"/>
	</g>
	<g>
		<path class="st0" d="M377.63,683.5c-23.92-50.34-55.87-97.72-93.59-138.76l-0.31-1.53c9.35-26.29,16.79-53.52,22.12-80.94
			c5.35-27.41,8.65-55.44,9.81-83.33l0.86-1.3c25.16-11.95,49.69-25.95,72.88-41.59c23.2-15.65,45.36-33.14,65.87-52l1.53-0.31
			c26.25,9.33,53.47,16.78,80.92,22.14c27.45,5.34,55.5,8.63,83.36,9.79l1.3,0.86c23.81,50.26,55.91,97.85,93.59,138.75l0.31,1.53
			c-9.39,26.35-16.84,53.58-22.16,80.93c-5.31,27.46-8.61,55.49-9.79,83.32l-0.86,1.3c-25.16,11.95-49.68,25.95-72.88,41.59
			c-23.2,15.65-45.36,33.14-65.87,52l-1.53,0.31c-26.24-9.33-53.46-16.78-80.92-22.14c-27.34-5.31-55.38-8.6-83.34-9.77
			L377.63,683.5z M318.64,379.97c-1.2,27.74-4.51,55.62-9.82,82.88c-5.3,27.27-12.68,54.35-21.94,80.52
			c37.45,40.88,69.22,87.97,93.09,138.01c27.81,1.21,55.69,4.5,82.88,9.78c27.31,5.33,54.38,12.72,80.5,21.95
			c20.43-18.72,42.48-36.1,65.55-51.66c23.07-15.56,47.45-29.5,72.46-41.43c1.22-27.68,4.52-55.55,9.8-82.86
			c5.29-27.2,12.68-54.29,21.98-80.51c-37.42-40.75-69.32-88.05-93.09-138.01c-27.71-1.2-55.59-4.5-82.9-9.81
			c-27.29-5.33-54.37-12.71-80.5-21.95c-20.43,18.72-42.48,36.1-65.55,51.66C368.03,354.11,343.65,368.04,318.64,379.97z"/>
	</g>
	<g>
		<path class="st0" d="M392.29,714.18c-32.48-51.15-73.22-98.02-119.35-137.3l-0.54-1.61c6.6-29.6,11.02-59.97,13.14-90.25
			c2.14-30.27,1.99-60.96-0.45-91.2l0.76-1.52c25.57-16.23,50.17-34.57,73.12-54.53c22.96-19.96,44.55-41.77,64.17-64.82l1.61-0.54
			c29.55,6.59,59.91,11.02,90.23,13.16c30.33,2.12,61.02,1.96,91.23-0.48l1.52,0.76c32.35,51.07,73.28,98.16,119.35,137.3l0.54,1.61
			c-6.64,29.67-11.07,60.03-13.19,90.25c-2.09,30.33-1.93,61.01,0.48,91.19l-0.76,1.52c-25.56,16.22-50.17,34.57-73.12,54.53
			c-22.95,19.95-44.55,41.76-64.17,64.82l-1.61,0.54c-29.54-6.59-59.9-11.02-90.23-13.17c-30.2-2.11-60.89-1.94-91.21,0.5
			L392.29,714.18z M288.44,394.53c2.38,30.09,2.51,60.6,0.38,90.71c-2.11,30.12-6.48,60.32-13,89.77
			c45.82,39.14,86.33,85.74,118.71,136.56c30.16-2.38,60.68-2.52,90.71-0.42c30.17,2.13,60.36,6.51,89.75,13.02
			c19.56-22.9,41.05-44.57,63.88-64.42c22.83-19.85,47.28-38.11,72.68-54.29c-2.35-30.02-2.49-60.53-0.4-90.69
			c2.1-30.05,6.49-60.25,13.04-89.77C678.43,386,637.75,339.2,605.49,288.44c-30.05,2.37-60.58,2.51-90.73,0.4
			c-30.15-2.13-60.34-6.51-89.75-13.02c-19.56,22.9-41.05,44.57-63.88,64.42C338.29,360.09,313.84,378.35,288.44,394.53z"/>
	</g>
	<g>
		<path class="st0" d="M412.17,745.33c-41.81-50.88-91.98-96.05-146.95-132.32l-0.79-1.66c3.2-32.81,3.95-66.16,2.22-99.11
			c-1.7-32.95-5.93-66.03-12.57-98.34l0.62-1.74c25.43-20.89,49.54-43.95,71.66-68.51c22.12-24.57,42.53-50.96,60.65-78.43l1.67-0.8
			c32.76,3.2,66.1,3.95,99.09,2.25c33-1.73,66.09-5.97,98.36-12.6l1.74,0.62c41.66,50.81,92.06,96.19,146.95,132.31l0.8,1.67
			c-3.23,32.89-4,66.24-2.27,99.11c1.76,33,6,66.08,12.59,98.31l-0.62,1.74c-25.43,20.89-49.54,43.94-71.66,68.51
			c-22.12,24.57-42.53,50.96-60.65,78.43l-1.67,0.8c-32.74-3.2-66.08-3.95-99.09-2.25c-32.86,1.72-65.94,5.97-98.33,12.62
			L412.17,745.33z M257.79,414.24c6.55,32.15,10.73,65.05,12.43,97.81c1.72,32.77,1,65.93-2.13,98.57
			c54.62,36.16,104.49,81.06,146.16,131.61c32.23-6.57,65.13-10.76,97.81-12.47c32.83-1.69,65.98-0.97,98.55,2.16
			c18.07-27.3,38.38-53.53,60.38-77.96c22-24.44,45.96-47.38,71.22-68.2c-6.51-32.08-10.7-64.97-12.44-97.79
			c-1.71-32.7-0.98-65.86,2.18-98.58c-54.55-36.02-104.63-81.12-146.16-131.61c-32.11,6.54-65.02,10.73-97.84,12.45
			c-32.81,1.69-65.97,0.97-98.56-2.16c-18.07,27.3-38.38,53.52-60.38,77.96C307.01,370.47,283.05,393.42,257.79,414.24z"/>
	</g>
	<g>
		<path class="st0" d="M437.74,776.32c-51.85-49.35-111.96-91.44-176.07-123.28l-1.08-1.69c-0.89-35.82-4.5-71.9-10.73-107.22
			c-6.2-35.32-15.15-70.45-26.59-104.42l0.43-1.96c24.67-25.91,47.63-53.97,68.24-83.41c20.61-29.44,39.13-60.61,55.04-92.65
			l1.69-1.08c35.76-0.89,71.83-4.49,107.2-10.7c35.37-6.24,70.51-15.19,104.45-26.62l1.96,0.44
			c51.68,49.3,112.06,91.58,176.06,123.28l1.08,1.69c0.87,35.91,4.46,71.99,10.68,107.23c6.27,35.37,15.22,70.49,26.61,104.4
			l-0.43,1.96c-24.67,25.91-47.63,53.97-68.24,83.41c-20.61,29.44-39.13,60.61-55.04,92.65l-1.69,1.08
			c-35.75,0.89-71.82,4.49-107.2,10.7c-35.22,6.21-70.35,15.17-104.41,26.64L437.74,776.32z M227.33,439.56
			c11.33,33.81,20.19,68.76,26.36,103.88c6.19,35.13,9.81,71,10.76,106.63c63.72,31.77,123.47,73.61,175.12,122.62
			c33.9-11.35,68.84-20.24,103.87-26.41c35.19-6.18,71.05-9.78,106.61-10.73c15.88-31.85,34.32-62.83,54.82-92.11
			c20.5-29.28,43.31-57.2,67.8-83.01c-11.27-33.74-20.15-68.68-26.38-103.85c-6.18-35.05-9.78-70.92-10.71-106.64
			c-63.62-31.64-123.63-73.66-175.12-122.62c-33.77,11.31-68.72,20.19-103.9,26.39c-35.18,6.17-71.04,9.78-106.61,10.73
			c-15.88,31.84-34.32,62.83-54.82,92.11C274.63,385.83,251.82,413.75,227.33,439.56z"/>
	</g>
	<g>
		<path class="st0" d="M469.43,806.35c-62.47-46.37-132.9-83.82-206.28-109.68l-1.39-1.68c-5.71-38.53-14.38-76.97-25.78-114.26
			c-11.37-37.28-25.67-74-42.52-109.14l0.21-2.17c23.18-31.22,44.23-64.54,62.57-99.03c18.34-34.49,34.19-70.58,47.11-107.25
			l1.68-1.39c38.47-5.7,76.9-14.36,114.24-25.74c37.33-11.41,74.06-25.73,109.16-42.56l2.17,0.21
			c62.29,46.34,133.03,83.95,206.28,109.68l1.39,1.68c5.7,38.63,14.35,77.07,25.72,114.27c11.45,37.33,25.76,74.04,42.54,109.1
			l-0.21,2.17c-23.18,31.22-44.23,64.54-62.57,99.03c-18.34,34.49-34.19,70.57-47.11,107.25l-1.68,1.39
			c-38.45,5.69-76.88,14.36-114.24,25.74c-37.18,11.37-73.89,25.69-109.12,42.58L469.43,806.35z M197.82,470.92
			c16.7,34.98,30.9,71.5,42.2,108.58c11.34,37.08,19.99,75.3,25.73,113.61c72.95,25.84,142.96,63.06,205.17,109.09
			c35.07-16.74,71.58-30.95,108.56-42.26c37.15-11.33,75.36-19.97,113.6-25.69c12.91-36.46,28.7-72.33,46.94-106.63
			c18.24-34.3,39.15-67.45,62.15-98.54c-16.63-34.91-30.84-71.42-42.22-108.55c-11.31-36.99-19.95-75.22-25.68-113.63
			c-72.83-25.71-143.14-63.09-205.18-109.09c-34.94,16.68-71.47,30.89-108.6,42.24c-37.13,11.32-75.35,19.96-113.6,25.7
			c-12.91,36.46-28.7,72.33-46.94,106.63C241.74,406.68,220.83,439.83,197.82,470.92z"/>
	</g>
	<g>
		<path class="st0" d="M507.61,834.56c-73.54-41.75-154.48-72.83-237.08-91.01l-1.72-1.63c-11.26-40.81-25.71-81.13-42.95-119.85
			c-17.2-38.72-37.5-76.43-60.33-112.11l-0.06-2.37c20.88-36.75,39.17-75.49,54.39-115.13c15.22-39.64,27.54-80.67,36.62-121.95
			l1.63-1.72c40.74-11.24,81.06-25.68,119.84-42.91c38.77-17.26,76.49-37.57,112.13-60.37l2.37-0.06
			c73.34,41.74,154.64,72.95,237.07,91l1.72,1.63c11.26,40.92,25.69,81.25,42.89,119.88c17.29,38.75,37.6,76.46,60.35,112.07
			l0.06,2.37c-20.87,36.75-39.17,75.48-54.39,115.13c-15.21,39.64-27.54,80.67-36.62,121.95l-1.63,1.72
			c-40.73,11.24-81.05,25.67-119.84,42.9c-38.6,17.19-76.32,37.5-112.08,60.39L507.61,834.56z M170.14,508.65
			c22.65,35.53,42.8,73.05,59.91,111.55c17.14,38.5,31.54,78.59,42.81,119.16c82.13,18.21,162.59,49.1,235.8,90.52
			c35.61-22.7,73.13-42.87,111.53-59.97c38.58-17.14,78.66-31.52,119.15-42.77c9.1-41.05,21.38-81.84,36.52-121.26
			c15.13-39.42,33.3-77.96,54-114.54c-22.57-35.46-42.73-72.97-59.92-111.51c-17.1-38.41-31.49-78.51-42.75-119.19
			c-81.98-18.09-162.78-49.11-235.81-90.52c-35.48,22.62-73.01,42.79-111.57,59.95c-38.56,17.13-78.64,31.52-119.15,42.77
			c-9.1,41.04-21.38,81.83-36.52,121.26C209.01,433.53,190.84,472.06,170.14,508.65z"/>
	</g>
	<g>
		<path class="st0" d="M552.52,859.93c-84.87-35.31-176.31-58.1-267.83-66.78l-2.07-1.53c-17.56-42.54-38.49-84.12-62.21-123.61
			c-23.69-39.49-50.58-77.49-79.94-112.96l-0.38-2.55c17.65-42.42,32.26-86.63,43.43-131.41c11.17-44.78,19.02-90.68,23.35-136.41
			l1.53-2.07c42.47-17.53,84.05-38.44,123.61-62.17c39.54-23.76,77.54-50.67,112.97-79.98l2.55-0.38
			c84.65,35.32,176.5,58.22,267.82,66.78l2.07,1.53c17.57,42.66,38.48,84.25,62.15,123.65c23.79,39.52,50.69,77.51,79.95,112.92
			l0.38,2.55c-17.65,42.41-32.26,86.63-43.43,131.41c-11.16,44.78-19.02,90.67-23.35,136.41l-1.53,2.07
			c-42.45,17.52-84.04,38.43-123.6,62.16c-39.37,23.66-77.36,50.57-112.92,80L552.52,859.93z M145.28,553.03
			c29.14,35.33,55.86,73.14,79.42,112.41c23.59,39.27,44.44,80.61,61.97,122.89c91.02,8.77,181.91,31.43,266.39,66.42
			c35.41-29.21,73.22-55.94,112.38-79.47c39.35-23.6,80.68-44.43,122.88-61.92c4.38-45.49,12.23-91.12,23.33-135.66
			c11.1-44.54,25.6-88.51,43.08-130.73c-29.05-35.27-55.76-73.06-79.42-112.37c-23.54-39.18-44.37-80.53-61.91-122.93
			c-90.84-8.65-182.12-31.42-266.39-66.42c-35.29,29.11-73.1,55.83-112.42,79.46c-39.33,23.59-80.67,44.42-122.88,61.93
			c-4.38,45.49-12.23,91.12-23.33,135.66C177.26,466.83,162.76,510.81,145.28,553.03z"/>
	</g>
	<g>
		<path class="st0" d="M604.34,881.36c-96.24-26.85-197.91-39.33-297.79-36.56l-2.44-1.38c-24.58-43.57-52.66-85.66-83.49-125.12
			c-30.79-39.46-64.84-76.9-101.2-111.28l-0.75-2.7c13.43-48.1,23.33-97.74,29.44-147.52c6.11-49.79,8.51-100.35,7.12-150.26
			l1.38-2.44c43.49-24.54,85.59-52.61,125.12-83.44c39.51-30.87,76.95-64.93,111.28-101.26l2.7-0.75
			c96,26.89,198.13,39.43,297.79,36.56l2.44,1.38c24.61,43.69,52.68,85.8,83.43,125.16c30.9,39.48,64.96,76.91,101.21,111.23
			l0.75,2.7c-13.43,48.09-23.33,97.73-29.44,147.52c-6.11,49.79-8.51,100.34-7.12,150.26l-1.38,2.44
			c-43.48,24.52-85.57,52.6-125.12,83.44c-39.34,30.74-76.77,64.81-111.23,101.26L604.34,881.36z M124.33,604.2
			c36.12,34.25,69.95,71.51,100.57,110.76c30.66,39.24,58.62,81.08,83.14,124.37c99.36-2.59,200.42,9.81,296.19,36.37
			c34.34-36.2,71.58-70.05,110.71-100.62c39.33-30.67,81.16-58.62,124.37-83.08c-1.3-49.66,1.12-99.93,7.2-149.44
			c6.08-49.52,15.89-98.88,29.16-146.75c-36.01-34.2-69.84-71.44-100.57-110.71c-30.59-39.15-58.53-81-83.08-124.42
			c-99.14,2.7-200.65-9.77-296.19-36.37c-34.21,36.08-71.47,69.92-110.76,100.62c-39.31,30.66-81.14,58.61-124.37,83.09
			c1.3,49.65-1.12,99.92-7.2,149.44C147.41,506.97,137.6,556.34,124.33,604.2z"/>
	</g>
	<g>
		<path class="st0" d="M663.09,897.61c-107.39-16.21-218.73-16.21-326.12,0l-2.81-1.16C301.88,852.7,266,811.01,227.51,772.52
			c-38.44-38.5-80.14-74.38-123.92-106.65l-1.17-2.81c8.11-53.67,12.22-108.53,12.22-163.06c0-54.53-4.11-109.39-12.22-163.06
			l1.17-2.81c43.67-32.23,85.37-68.1,123.93-106.59c38.53-38.53,74.41-80.25,106.65-123.98l2.81-1.16
			c107.14,16.29,218.98,16.29,326.11,0l2.81,1.16c32.34,43.88,68.2,85.59,106.59,123.98c38.57,38.5,80.26,74.37,123.93,106.59
			l1.17,2.81c-8.11,53.67-12.22,108.53-12.22,163.06c0,54.52,4.11,109.38,12.22,163.06l-1.17,2.81
			c-43.66,32.22-85.35,68.08-123.93,106.59c-38.37,38.38-74.24,80.09-106.59,123.98L663.09,897.61z M108.51,662.18
			c43.51,32.17,84.94,67.88,123.17,106.17c38.27,38.27,73.98,79.71,106.17,123.17c106.85-15.96,217.52-15.96,324.37,0
			c32.25-43.61,67.94-85.06,106.11-123.22c38.36-38.3,79.8-73.99,123.17-106.11c-7.98-53.4-12.03-107.96-12.03-162.18
			c0-54.23,4.04-108.79,12.03-162.18C848.11,305.69,806.68,270,768.33,231.7c-38.18-38.18-73.88-79.63-106.11-123.22
			c-106.61,16.04-217.76,16.04-324.37,0c-32.13,43.45-67.85,84.9-106.17,123.22c-38.35,38.29-79.78,73.98-123.17,106.12
			c7.98,53.39,12.03,107.95,12.03,162.18C120.54,554.23,116.49,608.78,108.51,662.18z"/>
	</g>
</g>
</svg>
